<svg width="45" height="35" viewBox="0 0 45 35" fill="none" xmlns="http://www.w3.org/2000/svg">
<g id="exhibitions 1" clip-path="url(#clip0_394_626)">
<path id="Vector" d="M44.4288 25.0894C44.224 25.2513 44.0407 25.478 43.8035 25.5752C36.8498 28.544 29.8852 31.5021 22.9315 34.4709C22.5649 34.6329 22.2307 34.6329 21.8641 34.4709C14.9104 31.5021 7.94584 28.544 0.981295 25.5968C0.517711 25.4024 0.345215 25.111 0.345215 24.6144C0.355996 19.821 0.355996 15.0169 0.345215 10.2235C0.345215 9.71614 0.528492 9.43545 0.992076 9.24113C7.95662 6.28308 14.9104 3.32503 21.8749 0.35618C22.2523 0.194243 22.5757 0.205039 22.9422 0.366976C29.8744 3.32503 36.8282 6.27228 43.7712 9.24113C44.0191 9.34908 44.2132 9.5758 44.4396 9.74853C44.4288 14.8549 44.4288 19.9722 44.4288 25.0894ZM42.1217 24.895C41.9492 24.8195 41.8629 24.7763 41.7659 24.7331C35.4267 22.0342 29.0874 19.346 22.759 16.6363C22.4787 16.5175 22.2523 16.5499 21.9827 16.6578C16.9696 18.7954 11.9456 20.933 6.92164 23.0706C5.53089 23.6643 4.14014 24.2581 2.69548 24.8627C2.84641 24.9382 2.94344 25.003 3.05125 25.0462C9.40128 27.7451 15.7513 30.4549 22.1121 33.143C22.2954 33.2186 22.5649 33.197 22.7482 33.1214C27.8153 30.9839 32.8716 28.8247 37.9279 26.6764C39.2863 26.0934 40.6555 25.5104 42.1217 24.895ZM1.64972 23.8802C1.78987 23.8371 1.89768 23.8047 1.99471 23.7615C8.46333 21.0086 14.9427 18.2556 21.4113 15.5135C21.6701 15.4055 21.7456 15.2652 21.7456 14.9953C21.7348 14.2828 21.7348 13.5594 21.7456 12.8361C21.7563 12.3179 21.9827 12.0372 22.3924 12.0372C22.8021 12.0372 23.0285 12.3071 23.0393 12.8253C23.0501 13.5163 23.0608 14.2072 23.0393 14.8981C23.0285 15.2328 23.1255 15.3947 23.449 15.5351C29.8744 18.2556 36.2892 20.987 42.7146 23.7183C42.844 23.7723 42.9734 23.8155 43.1459 23.8802C43.1459 23.6859 43.1459 23.5456 43.1459 23.4052C43.1459 19.2057 43.1459 15.0169 43.1567 10.8173C43.1567 10.4611 43.0489 10.2991 42.7254 10.1588C36.3215 7.47062 29.9284 4.75007 23.5352 2.02953C23.395 1.97555 23.2549 1.92157 23.0501 1.846C23.0501 2.08351 23.0501 2.25624 23.0501 2.42897C23.0501 4.46938 23.0501 6.50979 23.0501 8.5502C23.0501 9.23033 22.8237 9.565 22.3816 9.54341C21.9504 9.53261 21.7563 9.21953 21.7563 8.5502C21.7563 6.49899 21.7563 4.43699 21.7563 2.38579C21.7563 2.22385 21.7456 2.06192 21.7348 1.8568C21.5623 1.92157 21.4545 1.95396 21.3574 1.99714C14.8888 4.73928 8.44176 7.48141 1.99471 10.2127C1.73597 10.3207 1.63894 10.4503 1.63894 10.7417C1.64972 14.9953 1.64972 19.2488 1.64972 23.5024C1.64972 23.6103 1.64972 23.7291 1.64972 23.8802Z" fill="#F0F0EF"/>
<path id="Vector_2" d="M27.5454 23.157C27.5454 23.6752 27.5347 24.1934 27.5454 24.7116C27.5562 25.111 27.3945 25.3809 27.0064 25.5429C25.5941 26.1366 24.1925 26.752 22.7695 27.3242C22.5431 27.4105 22.2196 27.4105 21.9932 27.3242C20.5701 26.752 19.1686 26.1258 17.7563 25.5429C17.3897 25.3917 17.228 25.1326 17.2388 24.744C17.2388 23.686 17.2388 22.6172 17.2388 21.5592C17.2388 21.1706 17.4113 20.9223 17.7778 20.7711C19.1794 20.1881 20.5593 19.5728 21.9717 19.0006C22.2196 18.9034 22.5754 18.9034 22.8234 19.0006C24.2141 19.562 25.5941 20.1773 26.9741 20.7495C27.373 20.9115 27.5454 21.1814 27.5347 21.6132C27.5347 22.1206 27.5454 22.6388 27.5454 23.157ZM25.2275 21.4189C24.6561 21.1706 24.1279 21.0086 23.6643 20.7387C22.8126 20.2421 22.004 20.2097 21.1415 20.7279C20.6779 21.0086 20.1389 21.1706 19.5675 21.4189C20.5162 21.8183 21.3679 22.1962 22.2196 22.5524C22.3166 22.5956 22.4568 22.5956 22.5431 22.5632C23.4163 22.1962 24.2788 21.8183 25.2275 21.4189ZM18.5433 22.3905C18.5433 23.049 18.5325 23.6428 18.5541 24.2258C18.5541 24.3229 18.6188 24.4633 18.6942 24.4957C19.6861 24.9383 20.6887 25.3593 21.756 25.8128C21.756 25.1326 21.7668 24.5173 21.7453 23.9127C21.7453 23.8263 21.6374 23.7184 21.5512 23.6752C20.5701 23.2542 19.5891 22.8439 18.5433 22.3905ZM23.0498 25.8128C24.1063 25.3593 25.0874 24.9599 26.0577 24.5281C26.1439 24.4957 26.2409 24.3661 26.2409 24.2906C26.2517 23.6752 26.2517 23.0706 26.2517 22.3905C25.1952 22.8439 24.1925 23.2649 23.2007 23.6968C23.136 23.7292 23.0605 23.8479 23.0605 23.9235C23.039 24.5389 23.0498 25.1326 23.0498 25.8128Z" fill="#F0F0EF"/>
<path id="Vector_3" d="M24.624 9.78091C24.624 8.42064 24.624 7.04957 24.624 5.6893C24.624 4.91201 25.0122 4.6637 25.7345 4.96598C28.9257 6.31546 32.1061 7.67573 35.2973 9.02521C35.7177 9.19794 35.8902 9.46783 35.8902 9.91046C35.8794 12.6418 35.8902 15.3623 35.8794 18.0937C35.8794 18.871 35.4698 19.1193 34.7582 18.817C31.567 17.4675 28.3866 16.0965 25.1954 14.7578C24.775 14.585 24.6025 14.3152 24.6133 13.8725C24.624 12.5123 24.624 11.152 24.624 9.78091ZM34.5534 17.338C34.5749 17.2192 34.5857 17.1652 34.5857 17.1221C34.5857 14.8981 34.5857 12.6634 34.5965 10.4395C34.5965 10.148 34.4348 10.0832 34.2299 9.99683C31.5778 8.87407 28.9257 7.7513 26.2843 6.61774C26.1765 6.57456 26.0579 6.54217 25.9178 6.48819C25.9178 8.84168 25.9178 11.1412 25.9286 13.4299C25.9286 13.5486 26.0903 13.7214 26.2089 13.7754C26.8557 14.0776 27.5241 14.3475 28.1818 14.6282C30.2841 15.5135 32.3972 16.4095 34.5534 17.338Z" fill="#F0F0EF"/>
<path id="Vector_4" d="M13.5408 12.577C13.5408 13.9373 13.53 15.3084 13.5516 16.6686C13.5624 17.1328 13.3899 17.4135 12.9478 17.5863C9.92915 18.8062 6.91046 20.0477 3.88099 21.2676C3.15866 21.5591 2.77055 21.2892 2.77055 20.5119C2.77055 17.813 2.77055 15.114 2.75977 12.4151C2.75977 11.9724 2.92148 11.7026 3.34194 11.519C6.38219 10.2451 9.41166 8.94962 12.4411 7.66492C13.1527 7.36264 13.5408 7.62174 13.5408 8.39904C13.5516 9.7917 13.5408 11.1844 13.5408 12.577ZM12.2471 9.18713C12.1177 9.21952 12.0422 9.23032 11.9668 9.2627C9.42244 10.3423 6.87812 11.4327 4.3338 12.5014C4.06427 12.6094 4.06427 12.7821 4.06427 13.0088C4.06427 15.1248 4.06427 17.23 4.06427 19.346C4.06427 19.4755 4.07505 19.5943 4.08583 19.7562C4.19364 19.7238 4.27989 19.713 4.35536 19.6807C6.8889 18.6551 9.42244 17.6187 11.956 16.6039C12.2147 16.4959 12.2471 16.3555 12.2471 16.118C12.2363 14.0668 12.2471 12.0048 12.2471 9.95363C12.2471 9.70533 12.2471 9.45703 12.2471 9.18713Z" fill="#F0F0EF"/>
<path id="Vector_5" d="M41.9815 16.6041C41.9815 17.9427 41.9815 19.2706 41.9815 20.6093C41.9815 21.4946 41.6149 21.7321 40.8171 21.3974C39.6097 20.8792 38.4022 20.361 37.1731 19.8536C36.7419 19.6809 36.5479 19.411 36.5479 18.9467C36.5586 16.2154 36.5479 13.4949 36.5586 10.7635C36.5586 9.98622 36.9683 9.73792 37.6906 10.0402C38.9197 10.5584 40.1379 11.0982 41.367 11.5948C41.8198 11.7783 41.9923 12.0698 41.9923 12.5448C41.9707 13.9051 41.9815 15.2546 41.9815 16.6041ZM37.8524 11.53C37.8524 13.9159 37.8524 16.2262 37.8631 18.5365C37.8631 18.6229 37.9386 18.7632 38.0249 18.7956C38.8873 19.1735 39.7498 19.5405 40.6339 19.9184C40.6554 19.8428 40.6878 19.7996 40.6878 19.7672C40.6878 17.5001 40.6985 15.233 40.6878 12.9659C40.6878 12.8579 40.5692 12.696 40.4721 12.6528C39.6204 12.2749 38.7795 11.9187 37.8524 11.53Z" fill="#F0F0EF"/>
<path id="Vector_6" d="M14.6299 8.96043C14.6299 8.39905 14.6407 7.83767 14.6299 7.27629C14.6191 6.89843 14.7808 6.65013 15.1258 6.50978C16.6567 5.86204 18.1769 5.20349 19.7185 4.56654C20.2792 4.32903 20.7104 4.59893 20.7212 5.21429C20.7427 6.38023 20.732 7.53539 20.732 8.70133C20.732 9.05759 20.5595 9.28431 20.2253 9.42465C18.7051 10.0616 17.1958 10.7201 15.6757 11.3571C15.0396 11.627 14.6515 11.3571 14.6407 10.6446C14.6299 10.0832 14.6299 9.52181 14.6299 8.96043ZM15.9236 9.83489C17.0664 9.34908 18.1661 8.88486 19.2442 8.42064C19.3196 8.38825 19.4059 8.2803 19.4167 8.20473C19.4275 7.52459 19.4275 6.84445 19.4275 6.08875C18.2739 6.57456 17.185 7.03878 16.0961 7.51379C16.0207 7.54618 15.9344 7.68653 15.9344 7.77289C15.9236 8.44223 15.9236 9.11157 15.9236 9.83489Z" fill="#F0F0EF"/>
<path id="Vector_7" d="M14.6299 14.3909C14.6299 13.9482 14.6407 13.5056 14.6299 13.0522C14.6192 12.7067 14.7701 12.4692 15.0827 12.3397C16.6244 11.6811 18.1553 11.0226 19.7078 10.3748C20.29 10.1373 20.7104 10.4072 20.7212 11.0442C20.7428 11.951 20.732 12.8471 20.7212 13.7539C20.7212 14.1102 20.5487 14.3369 20.2253 14.4772C18.6944 15.125 17.1743 15.7835 15.6434 16.4205C15.0504 16.6688 14.6515 16.3989 14.6407 15.7511C14.6299 15.3085 14.6299 14.8551 14.6299 14.3909ZM19.4275 11.9078C18.2524 12.4152 17.1635 12.8687 16.0746 13.3437C16.0099 13.3761 15.9344 13.484 15.9344 13.5704C15.9237 13.9914 15.9237 14.4233 15.9237 14.9199C17.0772 14.4233 18.1877 13.959 19.2766 13.484C19.3412 13.4516 19.4059 13.3329 19.4167 13.2573C19.4383 12.8255 19.4275 12.4152 19.4275 11.9078Z" fill="#F0F0EF"/>
</g>
<defs>
<clipPath id="clip0_394_626">
<rect width="45" height="35" fill="white"/>
</clipPath>
</defs>
</svg>
