<svg width="69" height="50" viewBox="0 0 69 50" fill="none" xmlns="http://www.w3.org/2000/svg">
<g id="quotation 2">
<path id="Vector" d="M17.2116 20.307C17.5774 20.307 17.8409 20.307 18.1043 20.307C21.1339 20.307 24.1489 20.307 27.1784 20.307C28.8469 20.307 29.5494 21.0102 29.5494 22.651C29.5494 30.6059 29.5494 38.5608 29.5494 46.5303C29.5494 48.1857 28.8469 48.8743 27.1784 48.8743C19.2313 48.8743 11.2841 48.8743 3.32229 48.8743C1.72701 48.8743 1.00986 48.1564 1.00986 46.5596C1.00986 38.6047 1.00986 30.6498 1.0245 22.6803C1.0245 22.2262 1.08304 21.7427 1.2294 21.3179C3.19058 15.3993 5.15176 9.48077 7.14221 3.56222C7.62519 2.14118 8.1228 1.78959 9.61564 1.78959C11.3426 1.78959 13.0843 1.78959 14.8113 1.78959C16.5822 1.78959 17.2262 2.44883 17.2262 4.25077C17.2262 9.27567 17.2262 14.3006 17.2262 19.3401C17.2115 19.6185 17.2116 19.9115 17.2116 20.307ZM4.84441 45.0067C11.8695 45.0067 18.7629 45.0067 25.671 45.0067C25.671 38.048 25.671 31.1333 25.671 24.1453C25.3636 24.1453 25.1002 24.1453 24.8367 24.1453C21.8364 24.1453 18.8361 24.1453 15.8358 24.1453C13.9771 24.1453 13.3477 23.5007 13.3477 21.6402C13.3477 16.6153 13.3477 11.5903 13.3477 6.5508C13.3477 6.27245 13.3477 5.97945 13.3477 5.6425C12.6159 5.6425 11.9866 5.68645 11.3573 5.62786C10.6987 5.55461 10.4206 5.80365 10.2303 6.41895C8.50333 11.6929 6.73241 16.9669 4.97613 22.2408C4.87368 22.5485 4.84441 22.9147 4.84441 23.2516C4.84441 30.225 4.84441 37.213 4.84441 44.1863C4.84441 44.4354 4.84441 44.6991 4.84441 45.0067Z" fill="#E04B6A"/>
<path id="Vector_2" d="M54.2544 20.307C56.801 20.307 59.2452 20.307 61.6747 20.307C62.6553 20.307 63.6213 20.2924 64.6019 20.3217C65.802 20.351 66.5777 21.1274 66.5777 22.3141C66.5923 30.4887 66.5923 38.6633 66.5777 46.8526C66.5777 48.0685 65.7727 48.8743 64.5579 48.8743C56.3912 48.8889 48.2245 48.8889 40.0432 48.8743C38.7845 48.8743 38.0381 48.0539 38.0381 46.6768C38.0381 42.5455 38.0381 38.4289 38.0381 34.2976C38.0381 30.4594 38.0235 26.6358 38.0527 22.7975C38.0527 22.2994 38.1113 21.772 38.2723 21.2886C40.2481 15.2968 42.2385 9.30497 44.2436 3.32783C44.6242 2.19979 45.195 1.80424 46.439 1.78959C48.2392 1.77494 50.054 1.77494 51.8542 1.78959C53.5666 1.78959 54.2544 2.49278 54.2544 4.19216C54.2544 9.24637 54.2544 14.3006 54.2544 19.3548C54.2544 19.6331 54.2544 19.9261 54.2544 20.307ZM50.3906 5.64251C49.571 5.64251 48.8978 5.6718 48.2099 5.62786C47.7123 5.59855 47.4928 5.74505 47.3171 6.24315C45.5608 11.5903 43.7607 16.9229 41.9897 22.2701C41.8873 22.5631 41.8727 22.8854 41.8727 23.2077C41.8727 30.2103 41.8727 37.213 41.8727 44.2156C41.8727 44.4793 41.8727 44.7284 41.8727 44.992C48.8831 44.992 55.7912 44.9921 62.6992 44.9921C62.6992 38.0187 62.6992 31.104 62.6992 24.1453C62.3772 24.1453 62.0992 24.1453 61.8357 24.1453C58.7183 24.1453 55.6009 24.1599 52.4689 24.1453C51.1809 24.1453 50.4784 23.4714 50.3906 22.1969C50.376 21.9478 50.376 21.7134 50.376 21.4644C50.376 16.5127 50.376 11.5611 50.376 6.59475C50.3906 6.30175 50.3906 6.0234 50.3906 5.64251Z" fill="#E04B6A"/>
</g>
</svg>
