<svg width="24" height="24" viewBox="0 0 24 24" fill="none" xmlns="http://www.w3.org/2000/svg">
<g id="Comercial/Box">
<g id="Icon">
<path fill-rule="evenodd" clip-rule="evenodd" d="M13.46 2.80999L19.46 6.13999C20.4136 6.67121 21.0034 7.67844 21 8.76999V15.23C21.0034 16.3215 20.4136 17.3288 19.46 17.86L13.46 21.19C12.5524 21.6956 11.4477 21.6956 10.54 21.19L4.54001 17.86C3.58644 17.3288 2.99666 16.3215 3.00001 15.23V8.76999C2.99666 7.67844 3.58644 6.67121 4.54001 6.13999L10.54 2.80999C11.4477 2.30434 12.5524 2.30434 13.46 2.80999ZM18.69 16.55C19.1638 16.2789 19.4572 15.7758 19.46 15.23V8.76999C19.4572 8.22414 19.1638 7.72113 18.69 7.44999L12.69 4.11999C12.2362 3.86717 11.6838 3.86717 11.23 4.11999L5.23001 7.44999C4.75626 7.72113 4.46283 8.22414 4.46001 8.76999V15.23C4.46283 15.7758 4.75626 16.2789 5.23001 16.55L11.23 19.88C11.6838 20.1328 12.2362 20.1328 12.69 19.88L18.69 16.55Z" fill="#F0F0EF"/>
<path d="M16.68 8.19999L12.45 10.55C12.1716 10.7108 11.8285 10.7108 11.55 10.55L7.32003 8.19999C7.08552 8.06275 6.79511 8.06309 6.56092 8.20086C6.32672 8.33864 6.18536 8.59232 6.1914 8.86397C6.19744 9.13562 6.34994 9.38276 6.59003 9.50999L10.82 11.86C10.9603 11.9345 11.1077 11.9948 11.26 12.04V16.5C11.26 16.9142 11.5958 17.25 12.01 17.25C12.4242 17.25 12.76 16.9142 12.76 16.5V12C12.9062 11.9599 13.0471 11.9029 13.18 11.83L17.41 9.47999C17.7622 9.27389 17.885 8.82405 17.6864 8.46761C17.4877 8.11116 17.0406 7.97892 16.68 8.16999V8.19999Z" fill="#F0F0EF"/>
</g>
</g>
</svg>
