<svg width="18" height="17" viewBox="0 0 18 17" fill="none" xmlns="http://www.w3.org/2000/svg">
<g id="Icon">
<path id="Path" d="M12.7601 2.64355C12.3459 2.64355 12.0101 2.97934 12.0101 3.39355C12.0101 3.80777 12.3459 4.14355 12.7601 4.14355C14.5521 4.15441 16.0037 5.60155 16.0201 7.39355V9.39355C16.0037 11.1856 14.5521 12.6327 12.7601 12.6436H10.5401L11.9101 11.2836C12.2026 10.9907 12.2026 10.5164 11.9101 10.2236C11.7708 10.0806 11.5797 9.99998 11.3801 9.99998C11.1805 9.99998 10.9894 10.0806 10.8501 10.2236L8.2001 12.8636C8.13231 12.9329 8.07805 13.0143 8.0401 13.1036C7.97036 13.2906 7.97036 13.4965 8.0401 13.6836C8.07805 13.7728 8.13231 13.8542 8.2001 13.9236L10.8501 16.5636C11.1429 16.856 11.6173 16.856 11.9101 16.5636C12.2026 16.2707 12.2026 15.7964 11.9101 15.5036L10.5401 14.1436H12.7601C15.3806 14.1326 17.5037 12.014 17.5201 9.39355V7.39355C17.5037 4.77314 15.3806 2.65447 12.7601 2.64355Z" fill="#F0F0EF"/>
<path id="Path_2" d="M9.48 3.68357C9.54975 3.49653 9.54975 3.29061 9.48 3.10357C9.43855 3.01626 9.38465 2.93542 9.32 2.86357L6.67 0.22357C6.53071 0.0806222 6.33959 0 6.14 0C5.94041 0 5.74929 0.0806222 5.61 0.22357C5.31755 0.516387 5.31755 0.990752 5.61 1.28357L6.98 2.64357H4.76C2.13955 2.65448 0.0164237 4.77315 0 7.39357V9.39357C0.0164237 12.014 2.13955 14.1327 4.76 14.1436C5.17421 14.1436 5.51 13.8078 5.51 13.3936C5.51 12.9794 5.17421 12.6436 4.76 12.6436C2.96796 12.6327 1.51636 11.1856 1.5 9.39357V7.39357C1.51636 5.60157 2.96796 4.15442 4.76 4.14357H6.97L5.61 5.50357C5.31755 5.79639 5.31755 6.27075 5.61 6.56357C5.90282 6.85602 6.37718 6.85602 6.67 6.56357L9.32 3.92357C9.38465 3.85172 9.43855 3.77088 9.48 3.68357Z" fill="#F0F0EF"/>
</g>
</svg>
