<svg width="40" height="20" viewBox="0 0 40 20" fill="none" xmlns="http://www.w3.org/2000/svg">
<g id="Group" opacity="0.5">
<path id="Vector" d="M6.00873 5.96582C6.00873 4.12307 6.00873 2.28033 6.00873 0.432054C6.00873 0.0280893 6.03083 0.00595417 6.42866 0.00595417C8.74934 0.00595417 11.07 0.00595417 13.3907 0.00595417C13.7167 0.00595417 13.7443 0.033623 13.7443 0.376716C13.7443 1.46687 13.7443 2.55149 13.7443 3.64164C13.7443 3.96813 13.7775 3.98473 14.0759 3.85745C17.0927 2.59022 20.1152 1.32852 23.1376 0.0612918C23.226 0.0225555 23.331 0.00595417 23.4304 0.00595417C26.7733 0.000420401 30.1162 0.000420528 33.4536 0.0114881C33.5641 0.0114881 33.6746 0.116629 33.7906 0.171967C33.7077 0.266041 33.6414 0.398851 33.5364 0.443122C31.0776 1.48347 28.6188 2.50722 26.16 3.54203C23.0215 4.85907 19.8886 6.18163 16.7502 7.49867C13.3686 8.92085 9.98151 10.3375 6.59442 11.7541C6.04188 11.9866 6.01425 11.9644 6.01425 11.3612C6.00873 9.55723 6.01425 7.76429 6.00873 5.96582Z" fill="#F0F0EF"/>
<path id="Vector_2" d="M28.6687 11.7098C27.1658 11.7098 25.6684 11.6932 24.1655 11.7154C23.6461 11.7209 23.1709 11.6102 22.7012 11.4055C20.9718 10.6529 19.2368 9.91689 17.5018 9.16983C17.4908 9.1643 17.4852 9.1643 17.4797 9.15877C17.4079 9.07576 17.3361 8.99275 17.2642 8.90975C17.3416 8.84334 17.4134 8.74927 17.5018 8.7216C18.5572 8.40617 19.6181 8.09628 20.6789 7.78639C21.5022 7.54844 22.32 7.31602 23.1378 7.06147C23.4196 6.97293 23.6627 6.99506 23.9334 7.10574C25.6076 7.81959 27.2874 8.52238 28.9671 9.22517C30.5584 9.89476 32.1553 10.5643 33.7466 11.2395C33.8129 11.2671 33.8847 11.2893 33.9455 11.3335C34.0892 11.4442 34.056 11.6213 33.8847 11.6711C33.7908 11.6988 33.6858 11.6932 33.5863 11.6932C31.9453 11.7043 30.3042 11.7043 28.6687 11.7098Z" fill="#F0F0EF"/>
<path id="Vector_3" d="M9.80969 16.3755C9.80969 16.8957 9.80969 17.4214 9.80969 17.9416C9.80969 18.495 9.80417 19.0483 9.81522 19.6017C9.81522 19.7677 9.77101 19.8397 9.5942 19.8286C9.39529 19.8175 9.19084 19.8286 8.9643 19.8286C8.95878 19.6958 8.9422 19.5906 8.9422 19.48C8.9422 18.0246 8.94773 16.5692 8.9422 15.1138C8.9422 14.8814 8.99745 14.8039 9.2461 14.7929C9.61078 14.7763 9.84837 14.8869 10.0749 15.1968C10.7877 16.1708 11.5392 17.1115 12.2796 18.0689C12.3182 18.1187 12.3348 18.1795 12.3624 18.2404C12.3901 18.2238 12.4177 18.2017 12.4508 18.1851C12.4564 18.091 12.4674 17.9914 12.4674 17.8973C12.4674 16.9732 12.4785 16.0546 12.4619 15.1304C12.4564 14.8648 12.5503 14.7984 12.7934 14.8095C13.4233 14.8261 13.3183 14.7707 13.3183 15.3462C13.3239 16.7352 13.3128 18.1297 13.3239 19.5187C13.3239 19.7733 13.2576 19.8452 12.9979 19.8452C12.705 19.8452 12.5116 19.7677 12.3293 19.5242C11.6276 18.578 10.8982 17.6538 10.1744 16.7241C10.0804 16.6024 9.98098 16.4807 9.88152 16.3645C9.8539 16.3534 9.83179 16.3645 9.80969 16.3755Z" fill="#F0F0EF"/>
<path id="Vector_4" d="M15.3466 14.8143C15.4405 14.8088 15.5344 14.7977 15.6228 14.7977C16.6616 14.7977 17.7004 14.8033 18.7392 14.7867C18.9823 14.7811 19.0818 14.8586 19.0486 15.1021C19.0431 15.1463 19.0431 15.1961 19.0486 15.2404C19.0873 15.5005 18.9934 15.5946 18.7171 15.589C17.9932 15.5724 17.2639 15.5946 16.5345 15.578C16.2748 15.5724 16.1643 15.6388 16.192 15.9155C16.2141 16.1092 16.1975 16.3029 16.1975 16.4966C16.1975 16.895 16.1975 16.895 16.6064 16.895C17.2031 16.895 17.8054 16.9061 18.4021 16.8895C18.6563 16.8839 18.7392 16.9614 18.7281 17.216C18.706 17.7472 18.7723 17.6697 18.2695 17.6753C17.6783 17.6753 17.0926 17.6863 16.5014 17.6697C16.2527 17.6642 16.1754 17.7472 16.192 17.9852C16.2085 18.2342 16.2085 18.4832 16.192 18.7322C16.1754 18.9702 16.2527 19.0532 16.5014 19.0476C17.2528 19.031 18.0098 19.0532 18.7668 19.0366C19.0155 19.031 19.1094 19.0975 19.0983 19.3575C19.0762 19.8998 19.1481 19.8224 18.6231 19.8279C17.612 19.8279 16.6008 19.8279 15.5897 19.8334C15.4129 19.8334 15.3245 19.8002 15.3245 19.59C15.33 18.0626 15.33 16.5298 15.33 15.0025C15.3245 14.9416 15.341 14.8918 15.3466 14.8143Z" fill="#F0F0EF"/>
<path id="Vector_5" d="M4.44469 19.8221C4.08554 19.8221 3.79822 19.8387 3.51642 19.811C3.42801 19.8055 3.32303 19.717 3.26225 19.6339C2.79811 19.0363 2.34503 18.4331 1.89194 17.8299C1.83116 17.7525 1.77038 17.6695 1.71513 17.6031C1.44438 17.8521 1.17916 18.0845 0.930518 18.339C0.880789 18.3888 0.89184 18.5161 0.89184 18.6047C0.886315 18.9976 0.89184 19.3905 0.89184 19.8166C0.621094 19.8166 0.394551 19.8166 0.168009 19.8166C-0.0419577 19.8166 0.00777115 19.6561 0.00224571 19.5343C0.00224571 18.1896 0.00224571 16.8449 0.00224571 15.4947C0.00224571 15.467 0.00224571 15.4394 0.00224571 15.4117C0.00224571 14.7587 0.00224577 14.7698 0.648721 14.7864C0.847637 14.7919 0.897366 14.8694 0.89184 15.052C0.880789 15.6773 0.886315 16.3082 0.886315 16.9335C0.886315 17.0331 0.886315 17.1271 0.886315 17.2268C0.908416 17.2378 0.930518 17.2489 0.95262 17.26C1.22889 16.9722 1.49964 16.6844 1.77591 16.3967C2.20689 15.9429 2.63788 15.4892 3.05781 15.0243C3.21252 14.8528 3.37828 14.7698 3.61035 14.7864C3.82584 14.803 4.04686 14.7919 4.35076 14.7919C4.24025 14.9192 4.185 14.9856 4.12974 15.0465C3.57167 15.622 3.02466 16.203 2.46106 16.773C2.32293 16.9169 2.32293 17.0109 2.43896 17.1659C3.04123 17.9461 3.63245 18.7319 4.2292 19.5177C4.28446 19.5952 4.33971 19.6782 4.44469 19.8221Z" fill="#F0F0EF"/>
<path id="Vector_6" d="M40.0012 19.8229C39.736 19.8229 39.5039 19.8395 39.2773 19.8118C39.1945 19.8007 39.084 19.7122 39.0453 19.6347C38.9182 19.3691 38.8298 19.0869 38.6917 18.8268C38.6474 18.7383 38.5148 18.6386 38.4154 18.6331C37.7523 18.6165 37.0893 18.6165 36.4262 18.6331C36.3268 18.6331 36.1942 18.7327 36.1444 18.8213C36.0063 19.0813 35.9179 19.3691 35.7853 19.6237C35.7355 19.7122 35.6085 19.8007 35.509 19.8118C35.3046 19.8395 35.0891 19.8229 34.8349 19.8229C34.9012 19.6458 34.9509 19.4964 35.0062 19.358C35.6195 17.9469 36.2328 16.5413 36.8517 15.1302C36.9069 15.003 36.9788 14.8037 37.0727 14.7816C37.2992 14.7318 37.5479 14.7595 37.7855 14.7761C37.8352 14.7816 37.8849 14.8757 37.9126 14.9366C38.5977 16.5026 39.2773 18.0742 39.957 19.6458C39.9846 19.6901 39.9846 19.7343 40.0012 19.8229ZM38.2772 17.8141C37.9899 17.1445 37.7192 16.5192 37.4153 15.8109C37.1114 16.5247 36.8462 17.1501 36.5644 17.8141C37.1556 17.8141 37.6915 17.8141 38.2772 17.8141Z" fill="#F0F0EF"/>
<path id="Vector_7" d="M33.5809 19.0359C32.8349 19.8051 31.9675 20.0597 30.9673 19.8383C29.9838 19.6225 29.3705 18.9917 29.0997 18.0399C28.7848 16.9497 29.2158 15.7489 30.1054 15.1512C31.0337 14.5259 32.3819 14.5591 33.2659 15.2398C33.5754 15.4777 33.5753 15.4833 33.3267 15.76C33.2217 15.8762 33.1167 15.9868 32.9952 16.1252C32.9068 16.0588 32.8294 15.9979 32.7521 15.9426C32.0614 15.4169 31.2491 15.3726 30.6303 15.8264C29.9949 16.2967 29.7518 17.2043 30.0446 17.9956C30.459 19.0913 31.7133 19.462 32.6526 18.7648C33.0449 18.4715 33.0449 18.4715 33.393 18.8367C33.4538 18.8921 33.5035 18.9529 33.5809 19.0359Z" fill="#F0F0EF"/>
<path id="Vector_8" d="M24.5292 14.8145C24.5458 14.8643 24.5569 14.8864 24.5569 14.9141C24.6121 15.6058 24.6121 15.6058 23.9325 15.6058C23.7115 15.6058 23.4905 15.6224 23.2694 15.6003C23.0318 15.5837 22.949 15.6556 22.9545 15.9047C22.9655 17.0833 22.96 18.262 22.96 19.4463C22.96 19.5569 22.96 19.6621 22.96 19.817C22.6948 19.817 22.4517 19.8336 22.2086 19.806C22.1588 19.8004 22.0925 19.6399 22.087 19.5514C22.0815 18.5166 22.087 17.4873 22.0815 16.4525C22.0815 16.1813 22.1478 15.8216 22.0041 15.6612C21.8826 15.5228 21.5068 15.6058 21.2416 15.6003C21.0648 15.5948 20.8935 15.5948 20.7167 15.6003C20.573 15.6058 20.4957 15.556 20.4957 15.3955C20.5012 14.6596 20.4238 14.7979 21.0593 14.7924C22.0925 14.7868 23.1202 14.7868 24.1535 14.7924C24.2806 14.7979 24.4077 14.809 24.5292 14.8145Z" fill="#F0F0EF"/>
<path id="Vector_9" d="M27.1548 14.7984C27.1548 14.9312 27.1548 15.0197 27.1548 15.1083C27.1548 16.5747 27.1493 18.0356 27.1603 19.5021C27.1603 19.7456 27.1106 19.8396 26.8454 19.8341C26.2763 19.8175 26.2763 19.8286 26.2763 19.2586C26.2763 17.8752 26.2818 16.4973 26.2708 15.1138C26.2708 14.8759 26.326 14.7707 26.5802 14.7984C26.757 14.8095 26.9449 14.7984 27.1548 14.7984Z" fill="#F0F0EF"/>
<path id="Vector_10" d="M5.99191 17.2938C5.99191 16.5578 5.99744 15.8163 5.98639 15.0803C5.98086 14.8645 6.05269 14.787 6.26819 14.7925C6.98649 14.8202 6.85941 14.715 6.86493 15.3957C6.87046 16.7625 6.85941 18.1238 6.87046 19.4907C6.87046 19.7563 6.79863 19.8393 6.52788 19.8282C5.90903 19.8006 5.99192 19.9112 5.98639 19.2804C5.99192 18.6219 5.99191 17.9578 5.99191 17.2938Z" fill="#F0F0EF"/>
</g>
</svg>
