<svg width="24" height="24" viewBox="0 0 24 24" fill="none" xmlns="http://www.w3.org/2000/svg">
<g id="ticket 1" clip-path="url(#clip0_394_692)">
<g id="Group">
<path id="Vector" d="M8.84315 24C8.27535 24 7.78641 23.8002 7.38159 23.3954C6.95048 22.959 6.51412 22.5279 6.08301 22.0968C5.70974 21.7235 5.70448 21.3871 6.05147 20.9928C6.62453 20.3356 6.79802 19.5943 6.48783 18.7742C6.18816 17.975 5.58882 17.5176 4.74764 17.402C4.11675 17.3126 3.55421 17.5019 3.07053 17.9225C2.60788 18.3273 2.29769 18.3168 1.86659 17.8857C1.46702 17.4808 1.0622 17.0813 0.657385 16.6765C-0.215342 15.7985 -0.225857 14.5788 0.64687 13.706C3.9012 10.4464 7.16078 7.19211 10.4204 3.93253C11.4876 2.86528 12.5549 1.80329 13.6169 0.736034C14.5842 -0.236584 15.7671 -0.241841 16.7398 0.730777C17.1288 1.11982 17.5231 1.50887 17.9122 1.89792C18.3012 2.28697 18.3065 2.6287 17.9437 3.04403C17.3812 3.68543 17.2234 4.42147 17.5126 5.22059C17.8017 6.01446 18.3958 6.48762 19.2423 6.6138C19.8942 6.70843 20.4672 6.50865 20.9667 6.07755C21.4031 5.69901 21.7185 5.70427 22.1286 6.11435C22.5492 6.53494 22.9698 6.95553 23.3904 7.37612C24.2105 8.20153 24.221 9.44228 23.3956 10.2677C19.195 14.4683 14.9943 18.669 10.7989 22.8697C10.5939 23.0747 10.3993 23.285 10.1838 23.4795C9.79999 23.816 9.35837 24 8.84315 24ZM2.54479 16.5503C4.2219 15.5461 5.96735 16.014 6.96626 17.0077C7.5288 17.5702 7.87579 18.2484 7.98093 19.037C8.0966 19.9097 7.91259 20.7246 7.40788 21.508C7.69703 21.7814 7.98619 22.0443 8.26483 22.3229C8.65914 22.7119 8.97458 22.7225 9.36889 22.3281C10.1785 21.5185 10.9934 20.7089 11.8031 19.894C11.8609 19.8361 11.9135 19.7678 12.0134 19.6574C11.8504 19.5154 11.6874 19.3893 11.5454 19.2526C11.2353 18.9424 11.2247 18.5008 11.5086 18.2221C11.782 17.954 12.2131 17.9645 12.5181 18.2694C12.6653 18.4166 12.7914 18.5849 12.9071 18.7216C15.0679 16.5608 17.1814 14.4526 19.3211 12.3128C19.1897 12.1972 19.0425 12.071 18.9058 11.9395C18.5693 11.6136 18.5483 11.1877 18.8427 10.8933C19.1371 10.6042 19.5682 10.6252 19.8889 10.9617C20.0256 11.1036 20.1413 11.2666 20.2569 11.4191C21.0245 10.6567 21.7238 9.97327 22.4125 9.27404C22.6438 9.04272 22.6859 8.7115 22.4861 8.49069C22.1549 8.13319 21.7921 7.80723 21.4399 7.4655C19.91 8.33297 18.2959 8.19102 17.0762 7.06068C16.54 6.56648 16.1982 5.94611 16.051 5.23636C15.8565 4.27952 16.0247 3.37525 16.561 2.53406C16.2666 2.24491 15.9774 1.96101 15.6935 1.67711C15.3308 1.3196 15.0048 1.30909 14.6473 1.66659C14.0269 2.28171 13.4066 2.90208 12.7862 3.52245C12.7336 3.57503 12.6916 3.63812 12.6442 3.69595C13.0859 4.24272 13.1542 4.55816 12.8703 4.85257C12.7599 4.96298 12.6022 5.0471 12.4497 5.08916C12.087 5.18379 11.8609 4.90515 11.6453 4.70537C9.51609 6.82935 7.41314 8.93231 5.31018 11.0405C5.7518 11.6451 5.79386 11.9606 5.47842 12.2602C5.17349 12.5494 4.84753 12.4916 4.29024 12.0499C3.36494 12.9647 2.43438 13.8795 1.5196 14.8048C1.3093 15.0151 1.30404 15.3358 1.49857 15.5514C1.84556 15.8931 2.20306 16.2138 2.54479 16.5503Z" fill="#F0F0EF"/>
<path id="Vector_2" d="M18.3746 9.62628C18.3536 9.97853 18.2379 10.1941 17.9856 10.3203C17.7385 10.4412 17.4704 10.4464 17.2706 10.2624C16.8763 9.90493 16.4977 9.52639 16.1402 9.13209C15.9037 8.86922 15.9562 8.46966 16.2086 8.22782C16.4662 7.97546 16.871 7.94918 17.1339 8.19627C17.4966 8.53275 17.8542 8.89025 18.1906 9.25301C18.2958 9.36867 18.3326 9.54217 18.3746 9.62628Z" fill="#F0F0EF"/>
<path id="Vector_3" d="M14.9257 7.75465C14.8416 7.71259 14.6576 7.65476 14.5314 7.5391C14.1897 7.22891 13.8637 6.8977 13.5483 6.56122C13.2749 6.27207 13.2854 5.85673 13.5483 5.59386C13.8217 5.32048 14.2212 5.30471 14.5156 5.57809C14.8679 5.90405 15.2096 6.24578 15.5356 6.59802C15.7406 6.81358 15.7774 7.07645 15.6512 7.34983C15.5251 7.60744 15.3095 7.73362 14.9257 7.75465Z" fill="#F0F0EF"/>
<path id="Vector_4" d="M11.0199 16.9709C11.0147 17.3336 10.8832 17.5492 10.6361 17.6701C10.3785 17.7963 10.1104 17.7858 9.9001 17.5912C9.52157 17.239 9.15355 16.8762 8.80657 16.4977C8.56998 16.2401 8.60678 15.8405 8.84862 15.5934C9.10098 15.3358 9.5058 15.2885 9.77393 15.5356C10.1525 15.8826 10.5152 16.2506 10.8675 16.6291C10.9674 16.7238 10.9884 16.8973 11.0199 16.9709Z" fill="#F0F0EF"/>
<path id="Vector_5" d="M5.96191 13.4326C6.01449 13.1225 6.14592 12.9016 6.40879 12.786C6.65589 12.6756 6.91876 12.6808 7.1238 12.8701C7.50233 13.2223 7.87035 13.5851 8.21734 13.9636C8.46443 14.237 8.42237 14.6366 8.16476 14.8889C7.90189 15.1466 7.49707 15.1623 7.21843 14.8995C6.87144 14.5682 6.52446 14.2318 6.20375 13.8795C6.08283 13.7639 6.03552 13.5851 5.96191 13.4326Z" fill="#F0F0EF"/>
</g>
</g>
<defs>
<clipPath id="clip0_394_692">
<rect width="24.0053" height="24" fill="white"/>
</clipPath>
</defs>
</svg>
