<svg width="35" height="35" viewBox="0 0 35 35" fill="none" xmlns="http://www.w3.org/2000/svg">
<g clip-path="url(#clip0_394_901)">
<path d="M34.712 15.0424C34.5772 15.2041 34.4604 15.3838 34.3166 15.5366C28.0355 21.8267 21.7454 28.1078 15.4643 34.389C15.3115 34.5417 15.1408 34.6586 14.9701 34.7844C14.8353 34.7844 14.7005 34.7844 14.5657 34.7844C14.395 34.6406 14.2242 34.5058 14.0535 34.362C12.7056 33.2298 10.7018 33.2118 9.33591 34.3261C9.1472 34.4788 8.9585 34.6316 8.76979 34.7933C8.63501 34.7933 8.50022 34.7933 8.36543 34.7933C8.1947 34.6496 8.01498 34.5238 7.85324 34.362C5.44502 31.9628 3.0368 29.5546 0.637574 27.1464C0.484814 26.9936 0.350026 26.8049 0.206251 26.6342C0.206251 26.4994 0.206251 26.3646 0.206251 26.2298C0.323068 26.086 0.439884 25.9333 0.556701 25.7895C1.39239 24.7921 1.66196 23.6688 1.36543 22.4018C1.18571 21.62 0.700475 21.027 0.197266 20.4339C0.197266 20.2991 0.197266 20.1643 0.197266 20.0295C0.323068 19.8768 0.430898 19.706 0.574673 19.5623C3.97133 16.1746 7.368 12.7779 10.7557 9.39026C10.8455 9.3004 10.9264 9.21054 11.0253 9.13865C11.2948 8.94995 11.6632 8.9859 11.8879 9.21953C12.1125 9.45316 12.1485 9.8126 11.9508 10.0822C11.8789 10.181 11.7891 10.2709 11.6992 10.3517C10.3603 11.6906 9.01241 13.0385 7.67352 14.3774C7.58366 14.4673 7.50279 14.5571 7.42191 14.638C7.87121 15.2221 7.91614 15.5456 7.58366 15.8421C7.27814 16.1207 6.94566 16.0668 6.50535 15.6804C4.96877 17.217 3.43218 18.7535 1.87762 20.3081C3.18956 22.285 3.18956 24.3428 1.85067 26.3736C4.10612 28.629 6.36158 30.8845 8.61703 33.1399C10.6478 31.81 12.6876 31.7921 14.7095 33.122C20.8199 27.0116 26.9303 20.9012 33.0586 14.7638C31.7377 12.7779 31.7287 10.7202 33.0676 8.68936C30.8122 6.43391 28.5657 4.18744 26.3012 1.92299C24.2884 3.26189 22.2396 3.2529 20.1369 1.86908C19.9123 2.10271 19.6876 2.35432 19.454 2.58795C18.4206 3.62133 17.3873 4.6547 16.3539 5.68808C16.264 5.77794 16.1831 5.86779 16.0753 5.9307C15.8057 6.11041 15.4733 6.07447 15.2396 5.84982C15.006 5.62518 14.9611 5.2927 15.1408 5.02312C15.2127 4.91529 15.3115 4.81645 15.4104 4.7176C16.7582 3.36972 18.1061 2.01285 19.463 0.664971C19.6158 0.521197 19.7865 0.395395 19.9572 0.269592C20.092 0.269592 20.2268 0.269592 20.3616 0.269592C20.5323 0.413366 20.703 0.55714 20.8738 0.691929C21.9341 1.52762 23.1113 1.75226 24.4142 1.36587C25.1061 1.15919 25.6183 0.691929 26.1575 0.269592C26.2923 0.269592 26.427 0.269592 26.5618 0.269592C26.7056 0.386409 26.8674 0.494239 27.0021 0.629027C29.4373 3.05521 31.8635 5.4814 34.2897 7.91658C34.4425 8.06934 34.5772 8.25804 34.712 8.42877C34.712 8.56356 34.712 8.69835 34.712 8.83314C34.5952 8.97691 34.4784 9.12967 34.3616 9.27344C33.5259 10.2529 33.2653 11.3761 33.5439 12.6342C33.7236 13.4339 34.2088 14.036 34.721 14.629C34.712 14.7728 34.712 14.9076 34.712 15.0424Z" fill="#F0F0EF"/>
<path d="M19.1851 18.2953C19.0772 18.1784 18.9964 18.0886 18.9155 18.0077C17.3699 16.4621 15.8154 14.9076 14.2698 13.362C13.4251 12.5173 13.4341 11.6098 14.2698 10.7741C16.04 9.00387 17.8102 7.23365 19.5804 5.46343C20.4251 4.61876 21.3327 4.61876 22.1684 5.45444C24.3789 7.66497 26.5894 9.86651 28.791 12.077C30.1748 13.4788 29.6985 15.7343 27.9014 16.3813C26.5984 16.8485 25.1607 16.2105 24.6395 14.9345C24.1183 13.6675 24.6664 12.2298 25.9155 11.6277C26.0143 11.5828 26.1132 11.5379 26.1671 11.5109C25.2865 10.6303 24.3969 9.74071 23.4893 8.84212C23.4983 8.83313 23.4444 8.87806 23.3905 8.94096C21.4585 10.8729 19.5355 12.8049 17.5047 14.8267C17.6215 14.8986 17.7563 14.9345 17.8372 15.0244C19.1401 16.3184 20.4521 17.6213 21.746 18.9333C22.9501 20.1553 22.7165 22.0873 21.2878 22.9679C20.0297 23.7407 18.3584 23.2824 17.6665 21.9705C16.9745 20.6675 17.5317 19.0231 18.8795 18.4121C18.9694 18.3851 19.0593 18.3492 19.1851 18.2953ZM22.5727 7.76381C22.1234 7.32351 21.6562 6.85624 21.1889 6.38897C20.9193 6.12838 20.8205 6.12838 20.5509 6.39796C19.8141 7.1348 19.0772 7.87164 18.3404 8.60849C17.289 9.65983 16.2467 10.7022 15.1953 11.7446C15.0336 11.9063 14.8988 12.077 15.1055 12.2837C15.5997 12.7869 16.1029 13.2811 16.5792 13.7484C18.583 11.7535 20.5689 9.76767 22.5727 7.76381ZM25.8077 13.9641C25.8166 14.638 26.3468 15.1772 27.0207 15.1772C27.7127 15.1772 28.2518 14.629 28.2518 13.9371C28.2428 13.2632 27.7127 12.733 27.0297 12.724C26.3378 12.733 25.7987 13.2722 25.8077 13.9641ZM19.9309 19.5533C19.257 19.5533 18.7178 20.0924 18.7178 20.7664C18.7178 21.4583 19.2569 21.9974 19.9489 21.9974C20.6228 21.9974 21.162 21.4583 21.1709 20.7844C21.1709 20.0924 20.6228 19.5443 19.9309 19.5533Z" fill="#F0F0EF"/>
<path d="M6.66709 19.8049C6.92768 19.9936 7.15233 20.1014 7.31407 20.2721C9.36285 22.3119 11.4116 24.3607 13.4604 26.4095C13.748 26.697 14.0355 26.9756 14.3141 27.2632C14.6286 27.5956 14.6376 28 14.35 28.2786C14.0715 28.5391 13.6671 28.5302 13.3616 28.2157C10.9893 25.8434 8.61703 23.4711 6.24475 21.0988C6.02011 20.8742 5.90329 20.5866 6.08301 20.3081C6.2178 20.1194 6.45143 19.9936 6.66709 19.8049Z" fill="#F0F0EF"/>
<path d="M6.09273 23.3633C6.18259 23.4172 6.37129 23.4801 6.49709 23.5969C7.96179 25.0526 9.42649 26.5083 10.8822 27.982C11.1967 28.2965 11.1877 28.6919 10.9092 28.9705C10.6396 29.2311 10.2352 29.2311 9.94767 28.9435C8.47398 27.4788 7.00929 26.0051 5.5356 24.5404C5.31096 24.3158 5.25704 24.0552 5.38284 23.7676C5.49067 23.5071 5.71532 23.3813 6.09273 23.3633Z" fill="#F0F0EF"/>
<path d="M13.7756 21.3055C13.9913 21.4044 14.153 21.4493 14.2609 21.5392C14.4586 21.7009 14.6383 21.8896 14.809 22.0783C15.0516 22.3569 15.0247 22.7433 14.7731 22.9949C14.5215 23.2465 14.153 23.2645 13.8655 23.0218C13.6588 22.8511 13.4701 22.6534 13.2994 22.4467C13.1197 22.2311 13.0747 21.9525 13.2365 21.7279C13.3713 21.5482 13.5959 21.4403 13.7756 21.3055Z" fill="#F0F0EF"/>
<path d="M10.2618 17.81C10.118 17.9897 9.99218 18.2054 9.81247 18.3312C9.5968 18.493 9.32723 18.448 9.12954 18.2683C8.90489 18.0796 8.69822 17.8729 8.5185 17.6483C8.34777 17.4416 8.29385 17.172 8.46458 16.9654C8.60836 16.7946 8.84199 16.6329 9.04867 16.6059C9.471 16.552 10.1989 17.3158 10.2618 17.81Z" fill="#F0F0EF"/>
<path d="M11.9785 20.8652C11.7628 20.7663 11.6011 20.7304 11.4933 20.6405C11.2866 20.4698 11.0979 20.2811 10.9272 20.0744C10.7025 19.8138 10.7295 19.4274 10.9631 19.1848C11.1967 18.9422 11.5741 18.8973 11.8437 19.1219C12.0684 19.3016 12.311 19.4993 12.4458 19.7419C12.5536 19.9307 12.5806 20.2272 12.4997 20.4249C12.4098 20.6046 12.1492 20.7214 11.9785 20.8652Z" fill="#F0F0EF"/>
<path d="M18.5383 26.077C18.7629 26.1849 18.9247 26.2298 19.0505 26.3286C19.2392 26.4814 19.4099 26.6611 19.5717 26.8498C19.8323 27.1463 19.8053 27.5238 19.5357 27.7843C19.2751 28.0359 18.9157 28.0449 18.6282 27.7933C18.4305 27.6226 18.2507 27.4429 18.08 27.2452C17.8913 27.0295 17.8464 26.76 17.9991 26.5353C18.1339 26.3376 18.3496 26.2208 18.5383 26.077Z" fill="#F0F0EF"/>
<path d="M16.7582 25.6367C16.5425 25.5378 16.3808 25.5019 16.264 25.412C16.0573 25.2413 15.8686 25.0526 15.6979 24.8459C15.4732 24.5764 15.4912 24.2079 15.7248 23.9653C15.9674 23.7137 16.3269 23.6688 16.6054 23.8934C16.8301 24.0731 17.0727 24.2708 17.2075 24.5135C17.3153 24.7022 17.3423 24.9987 17.2614 25.1964C17.1895 25.3761 16.9289 25.4929 16.7582 25.6367Z" fill="#F0F0EF"/>
<path d="M14.2334 7.53019C14.2334 7.89861 13.9459 8.19514 13.5864 8.20413C13.218 8.21311 12.8945 7.90759 12.8945 7.53917C12.8945 7.17075 13.209 6.86523 13.5864 6.87422C13.9549 6.87422 14.2334 7.16177 14.2334 7.53019Z" fill="#F0F0EF"/>
</g>
<defs>
<clipPath id="clip0_394_901">
<rect width="35" height="34.9191" fill="white"/>
</clipPath>
</defs>
</svg>
