<svg width="166" height="16" viewBox="0 0 166 16" fill="none" xmlns="http://www.w3.org/2000/svg">
<path id="Vector" d="M165.259 11.2609L162.479 10.4079C162.012 12.1139 160.884 12.9944 159.123 12.9944C158.022 13.0494 156.949 12.5541 156.233 11.7011C155.573 10.8206 155.243 9.58243 155.243 7.98653C155.243 6.39063 155.573 5.15243 156.288 4.29945C157.004 3.44646 158.049 2.95119 159.178 3.00622C160.058 3.00622 160.718 3.19882 161.214 3.58404C161.709 3.96926 162.094 4.5746 162.314 5.4551L165.066 4.29945C164.736 3.11628 163.965 2.0982 162.892 1.46535C161.847 0.832489 160.581 0.502303 159.04 0.502303C157.747 0.474787 156.481 0.777455 155.38 1.41031C154.335 2.01565 153.482 2.92367 152.959 3.99677C152.381 5.23497 152.079 6.61075 152.106 7.98653C152.079 9.36231 152.354 10.7381 152.959 12.0038C153.482 13.0769 154.335 13.9849 155.38 14.5903C156.509 15.2231 157.802 15.5258 159.095 15.4983C160.471 15.5258 161.847 15.1406 163.002 14.4252C164.075 13.7098 164.818 12.6642 165.259 11.2609ZM150.62 0.722424H147.594V15.2782H150.62V0.722424ZM145.695 0.722424H132.9V3.17131H137.798V15.2782H140.825V3.17131H145.695V0.722424ZM125.939 0.502303C124.838 0.474787 123.765 0.694906 122.775 1.10764C121.922 1.43783 121.206 1.98814 120.711 2.75857C120.243 3.44646 119.995 4.24442 119.995 5.06989C119.968 5.81281 120.161 6.5282 120.546 7.16106C120.986 7.79392 121.619 8.26169 122.307 8.56436C123.352 9.03212 124.453 9.36231 125.581 9.55492C126.764 9.80256 127.59 10.0227 128.057 10.2978C128.525 10.573 128.745 10.9032 128.745 11.2884C128.745 11.8112 128.47 12.279 128.002 12.5266C127.342 12.8568 126.599 13.0219 125.856 12.9668C124.948 12.9944 124.04 12.8018 123.215 12.4441C122.417 12.0038 121.784 11.3709 121.344 10.6005L119.555 12.7467C120.161 13.6547 121.014 14.3701 122.032 14.7829C123.05 15.2231 124.343 15.4708 125.966 15.4708C127.012 15.4983 128.057 15.3057 129.048 14.948C129.874 14.6453 130.616 14.1225 131.167 13.4346C131.69 12.7742 131.937 11.9488 131.937 11.1233C131.965 10.4079 131.772 9.6925 131.387 9.05964C130.974 8.4543 130.369 7.98654 129.708 7.68386C128.69 7.24361 127.617 6.94094 126.544 6.74833C125.306 6.50069 124.425 6.28057 123.93 5.9779C123.49 5.73026 123.215 5.29001 123.215 4.79473C123.187 4.27194 123.462 3.74913 123.93 3.47398C124.398 3.14379 125.086 2.9787 125.966 2.9787C126.792 2.95119 127.645 3.1438 128.36 3.55653C129.021 3.99678 129.543 4.60212 129.874 5.31752L131.992 3.28138C131.332 2.37336 130.451 1.63044 129.433 1.13516C128.333 0.694908 127.122 0.474787 125.939 0.502303ZM109.897 9.47237L111.301 5.34504L111.933 3.17131H111.961L112.621 5.37255L113.997 9.47237H109.897ZM115.951 15.2782H119.087L113.777 0.722424H110.145L104.862 15.2782H107.971L109.154 11.7011H114.74L115.951 15.2782ZM107.228 0.722424H94.4335V3.17131H99.3312V15.2782H102.358V3.17131H107.228V0.722424ZM92.755 0.722424H90.0035V9.14219L90.1135 11.7011H90.0585L88.8203 9.25224L83.7299 0.722424H80.263V15.2782H82.987V6.8584L82.9045 4.29945H82.932L84.1702 6.72082L89.2606 15.2782H92.755V0.722424ZM70.0547 9.47237L71.458 5.34504L72.0909 3.17131H72.1184L72.7787 5.37255L74.1545 9.47237H70.0547ZM76.1081 15.2782H79.2449L73.9344 0.722424H70.3023L64.9918 15.2782H68.0736L69.2843 11.7011H74.8699L76.1081 15.2782ZM66.9454 3.17131V0.722424H56.0493V15.2782H59.076V9.30728H65.2945V6.8584H59.076V3.19882H66.9454V3.17131ZM51.0139 15.2782H54.5084L49.1154 6.66578L54.3158 0.722424H50.7938L44.8229 7.62883V0.722424H41.7962V15.2782H44.8229V10.9582L46.8866 8.61939L51.0139 15.2782ZM33.2389 3.00622C34.4496 3.00622 35.3851 3.41895 36.073 4.29945C36.7609 5.17994 37.0636 6.39063 37.0636 7.98653C37.0636 9.58243 36.7334 10.8481 36.073 11.7011C35.3851 12.5541 34.3395 13.0494 33.2389 12.9944C32.0007 12.9944 31.0376 12.5541 30.3773 11.7011C29.7169 10.8481 29.3867 9.60995 29.3867 7.98653C29.3867 6.33559 29.7169 5.12491 30.3773 4.29945C31.0652 3.44646 31.9732 3.00622 33.2389 3.00622ZM33.2389 0.502303C31.9457 0.474787 30.6524 0.777455 29.5243 1.41031C28.4787 2.01565 27.6257 2.92367 27.1029 3.99677C26.4976 5.23497 26.1949 6.61075 26.2224 7.98653C26.1949 9.36231 26.4976 10.7656 27.1029 12.0038C27.6257 13.0769 28.4787 13.9849 29.5243 14.5903C30.6524 15.2231 31.9457 15.5258 33.2389 15.4983C34.5321 15.5258 35.7978 15.2231 36.926 14.5903C37.9716 13.9849 38.8245 13.0769 39.3473 12.0038C39.9252 10.7381 40.2278 9.36231 40.2003 7.98653C40.2278 6.61075 39.9527 5.23497 39.3473 3.99677C38.797 2.92367 37.9716 2.01565 36.926 1.41031C35.7978 0.777455 34.5321 0.474787 33.2389 0.502303ZM17.9127 3.00622C19.1234 3.00622 20.0865 3.41895 20.7468 4.29945C21.4072 5.17994 21.7374 6.39063 21.7374 7.98653C21.7374 9.58243 21.4072 10.8481 20.7468 11.7011C20.0589 12.5541 19.0133 13.0494 17.9127 12.9944C16.6745 12.9944 15.7115 12.5541 15.0511 11.7011C14.3907 10.8481 14.0605 9.60995 14.0605 7.98653C14.0605 6.33559 14.3907 5.12491 15.0511 4.29945C15.7115 3.44646 16.6745 3.00622 17.9127 3.00622ZM17.9127 0.502303C16.6195 0.474787 15.3263 0.777455 14.1981 1.41031C13.1525 2.01565 12.2996 2.92367 11.7768 3.99677C11.1989 5.23497 10.8963 6.61075 10.9238 7.98653C10.8963 9.36231 11.1714 10.7381 11.7768 12.0038C12.2996 13.0769 13.1525 13.9849 14.1981 14.5903C15.3263 15.2231 16.6195 15.5258 17.9127 15.4983C19.206 15.5258 20.4992 15.2231 21.6273 14.5903C22.6729 13.9849 23.4984 13.0769 24.0212 12.0038C24.599 10.8757 24.8742 9.55491 24.8742 7.98653C24.9292 6.61075 24.6265 5.23497 24.0212 3.99677C23.4984 2.92367 22.6454 2.01565 21.6273 1.41031C20.4992 0.777455 19.206 0.474787 17.9127 0.502303ZM3.1919 12.8293V0.722424H0.165192V15.2782H10.8687V12.8293H3.1919Z" fill="#F0F0EF"/>
</svg>
