<svg width="112" height="16" viewBox="0 0 112 16" fill="none" xmlns="http://www.w3.org/2000/svg">
<g id="78b8c60efa7561f75e546e66bb243e63.5e1e3601" clip-path="url(#clip0_407_88)">
<path id="Vector" fill-rule="evenodd" clip-rule="evenodd" d="M70.7732 12.8498L62.5862 12.8792L62.5568 8.7932H67.0713C67.2812 8.7932 67.451 8.6228 67.451 8.4128V6.9578C67.451 6.85707 67.411 6.76047 67.3398 6.68924C67.2686 6.61801 67.172 6.578 67.0713 6.578L62.5862 6.608L62.5568 3.146H70.3089C70.5189 3.146 70.688 2.9756 70.688 2.7656V1.3112C70.688 1.21057 70.6481 1.11406 70.577 1.04285C70.5059 0.971644 70.4095 0.931559 70.3089 0.9314H60.7358C60.6351 0.9314 60.5385 0.971415 60.4673 1.04264C60.3961 1.11387 60.356 1.21047 60.356 1.3112V14.6846C60.356 14.8946 60.5264 15.0644 60.7358 15.0644H70.7738C70.9832 15.0644 71.153 14.8946 71.153 14.6846V13.2296C71.153 13.1289 71.113 13.0323 71.0418 12.961C70.9706 12.8898 70.874 12.8498 70.7732 12.8498ZM105.385 6.3644L105.08 6.341C102.908 6.1754 101.589 5.978 101.589 4.646C101.589 3.3776 102.617 2.6498 104.409 2.6498C106.069 2.6498 107.679 3.1676 108.717 4.0358C108.756 4.06811 108.802 4.09229 108.85 4.10693C108.899 4.12157 108.95 4.12638 109 4.12108C109.051 4.11577 109.1 4.10046 109.144 4.07603C109.189 4.0516 109.228 4.01855 109.26 3.9788L110.133 2.8646C110.164 2.82517 110.186 2.78002 110.2 2.73175C110.213 2.68347 110.217 2.63302 110.211 2.58328C110.205 2.53355 110.189 2.48552 110.164 2.44195C110.139 2.39838 110.106 2.36013 110.067 2.3294C109.511 1.9004 107.469 0.5 104.487 0.5C102.009 0.5 99.3602 1.646 99.3602 4.862C99.3602 8.3084 102.546 8.5538 105.353 8.7698C107.767 8.9828 108.993 9.3968 108.993 11.069C108.993 12.4946 107.743 13.346 105.65 13.346C102.991 13.346 101.326 12.053 100.306 11.081C100.268 11.0445 100.222 11.0164 100.172 10.9985C100.122 10.9806 100.069 10.9734 100.017 10.9772C99.9638 10.9811 99.9124 10.9959 99.8657 11.0208C99.819 11.0457 99.7781 11.0801 99.7455 11.1218L98.8623 12.248C98.8039 12.3224 98.7753 12.4158 98.7821 12.5101C98.7888 12.6043 98.8305 12.6927 98.8988 12.758C100.828 14.6 103.024 15.4952 105.611 15.4952C109.177 15.4952 111.222 13.7642 111.222 10.7456C111.222 6.809 107.71 6.542 105.385 6.3644ZM51.9081 0.932H40.4936C40.393 0.932159 40.2966 0.972244 40.2255 1.04345C40.1544 1.11466 40.1144 1.21117 40.1144 1.3118V2.7662C40.1144 2.9762 40.2842 3.146 40.4936 3.146L45.0956 3.1166V14.6846C45.0956 14.8946 45.266 15.065 45.4754 15.065H46.9454C47.1554 15.065 47.3252 14.8952 47.3252 14.6852L47.2958 3.146H51.9081C52.1175 3.146 52.2872 2.9762 52.2872 2.7662V1.3112C52.2872 1.21057 52.2473 1.11406 52.1762 1.04285C52.1051 0.971644 52.0087 0.931559 51.9081 0.9314V0.932ZM90.1011 0.932H88.6311C88.5811 0.931921 88.5317 0.941687 88.4855 0.960738C88.4394 0.97979 88.3974 1.00775 88.3621 1.04303C88.3268 1.0783 88.2987 1.1202 88.2796 1.16632C88.2605 1.21244 88.2506 1.26187 88.2506 1.3118V10.0352C88.2506 12.0074 86.9085 13.2812 84.8307 13.2812C82.7636 13.2812 81.4286 12.0074 81.4286 10.0352V1.3112C81.4286 1.26132 81.4188 1.21194 81.3997 1.16586C81.3807 1.11978 81.3527 1.07791 81.3174 1.04264C81.2821 1.00737 81.2403 0.979397 81.1942 0.960311C81.1481 0.941224 81.0987 0.9314 81.0488 0.9314H79.5788C79.4781 0.9314 79.3815 0.971415 79.3103 1.04264C79.2391 1.11387 79.1991 1.21047 79.1991 1.3112V10.0346C79.1991 13.352 81.4094 15.4946 84.83 15.4946C88.262 15.4946 90.4803 13.352 90.4803 10.0346V1.3112C90.4803 1.21057 90.4403 1.11406 90.3692 1.04285C90.2981 0.971644 90.2017 0.931559 90.1011 0.9314V0.932ZM28.457 3.86L28.3676 3.878L26.2052 9.3122L30.6116 9.2726L28.4576 3.8606L28.457 3.86ZM35.1698 14.5376C35.1938 14.5954 35.2031 14.6581 35.1971 14.7203C35.191 14.7826 35.1697 14.8424 35.1351 14.8944C35.1005 14.9465 35.0536 14.9892 34.9985 15.0188C34.9435 15.0485 34.882 15.0641 34.8194 15.0644H33.1982C33.1225 15.0644 33.0486 15.0418 32.9858 14.9995C32.9231 14.9571 32.8744 14.897 32.846 14.8268L31.403 11.2526L25.4024 11.2706L24.0056 14.8256C23.9775 14.896 23.9289 14.9564 23.8661 14.999C23.8034 15.0415 23.7293 15.0643 23.6534 15.0644H22.1492C22.0866 15.0644 22.025 15.049 21.9697 15.0194C21.9145 14.9898 21.8675 14.9471 21.8328 14.8949C21.7981 14.8428 21.7769 14.7829 21.7709 14.7205C21.765 14.6582 21.7746 14.5953 21.7988 14.5376L27.3788 1.1654C27.4076 1.09626 27.4561 1.03715 27.5184 0.99552C27.5806 0.953885 27.6538 0.931577 27.7286 0.9314H29.2394C29.3924 0.9314 29.531 1.0238 29.5898 1.1654L35.1698 14.5376ZM13.5698 1.3112V14.6846C13.5698 14.8946 13.4 15.0644 13.19 15.0644H11.72C11.6194 15.0642 11.523 15.0242 11.4519 14.9529C11.3808 14.8817 11.3408 14.7852 11.3408 14.6846V5.4656L11.273 5.4956L7.22725 13.1144C7.09525 13.3622 6.68965 13.3622 6.55765 13.1144L2.48605 5.4788L2.41465 5.495L2.44405 14.6846C2.44405 14.8946 2.27425 15.0644 2.06425 15.0644H0.691446C0.590716 15.0644 0.494113 15.0244 0.422886 14.9532C0.35166 14.8819 0.311646 14.7853 0.311646 14.6846V1.3112C0.311646 1.1012 0.481446 0.932 0.691446 0.932H2.35945C2.49985 0.932 2.62945 1.01 2.69545 1.1336L6.99565 9.2456L11.2838 1.1336C11.3162 1.07263 11.3646 1.02164 11.4238 0.986124C11.483 0.950603 11.5508 0.931891 11.6198 0.932H13.19C13.4 0.932 13.5698 1.1024 13.5698 1.3118V1.3112Z" fill="#F0F0EF"/>
</g>
<defs>
<clipPath id="clip0_407_88">
<rect width="111" height="15" fill="white" transform="translate(0.311646 0.5)"/>
</clipPath>
</defs>
</svg>
