<svg width="75" height="50" viewBox="0 0 75 50" fill="none" xmlns="http://www.w3.org/2000/svg">
<path d="M74.258 28.3537C73.2073 20.5742 68.7724 15.3311 61.4342 12.5438C57.7665 11.1502 53.9321 11.5338 50.0306 11.5218C50.1771 11.7793 50.2751 11.959 50.3786 12.1334C53.3826 17.1847 56.3863 22.237 59.3894 27.2901C60.5153 29.188 60.4992 31.1235 59.3505 32.9893C57.2009 36.4767 52.1802 36.3425 50.0427 32.7478C47.3906 28.292 44.7457 23.8313 42.108 19.3657C41.9844 19.1578 41.8635 18.9499 41.7412 18.742L30.9005 0L18.9245 6.90367L21.5068 11.3595C18.8641 15.9427 15.5819 21.5279 12.9554 26.0937C8.71439 33.4654 4.48326 40.8426 0.261984 48.2251C0.178687 48.3686 0.111511 48.5202 0 48.7429H0.623386C5.42103 48.7187 10.22 48.6771 15.0176 48.6919C15.7069 48.6919 16.0387 48.4639 16.3706 47.8871C20.3249 41.0134 24.2994 34.1477 28.2941 27.2901C28.6536 26.643 29.1535 26.0844 29.7572 25.6551C29.8418 25.7892 29.9117 25.9045 29.9641 25.9931C31.7913 29.1102 33.6104 32.1899 35.4348 35.3084C36.9704 37.9347 38.4859 40.5743 40.4635 42.9136C45.2289 48.547 51.2572 50.9144 58.5524 49.6818C68.6435 47.977 75.6391 38.5449 74.258 28.3537Z" fill="#F0F0EF"/>
</svg>
