<svg width="18" height="21" viewBox="0 0 18 21" fill="none" xmlns="http://www.w3.org/2000/svg">
<g id="Icon">
<path id="Shape" fill-rule="evenodd" clip-rule="evenodd" d="M17.5001 2.25001C17.5013 1.69626 17.2728 1.16682 16.8691 0.787771C16.4654 0.408726 15.9227 0.214013 15.3701 0.250007H2.63008C2.07751 0.214013 1.53474 0.408726 1.13106 0.787771C0.727373 1.16682 0.49891 1.69626 0.500081 2.25001V9.75001V10.81C0.488926 12.2438 1.63644 13.4181 3.07008 13.44H6.42008V13.93C6.39612 14.3121 6.27195 14.6811 6.06008 15C5.15277 16.4682 5.4081 18.3727 6.67008 19.55C7.97385 20.7856 10.0163 20.7856 11.3201 19.55C12.0654 18.8714 12.4872 17.908 12.4801 16.9C12.4994 16.2344 12.3332 15.5766 12.0001 15C11.7674 14.6677 11.6355 14.2754 11.6201 13.87L11.5301 13.42L14.9701 13.51C16.4037 13.4881 17.5512 12.3138 17.5401 10.88V9.75001L17.5001 2.25001ZM2.07008 2.25001C2.07008 2.10001 2.07008 1.82001 2.63008 1.82001H15.3701C15.9301 1.82001 15.9301 2.10001 15.9301 2.25001V8.18001H2.07008V2.25001ZM15.0001 12.03C15.5799 11.9774 16.0183 11.482 16.0001 10.9V9.75001H2.00008V10.81C1.99203 11.1035 2.10162 11.388 2.30446 11.6002C2.50729 11.8124 2.78655 11.9348 3.08008 11.94H6.50008C7.29147 11.9564 7.92124 12.6085 7.91008 13.4V13.89C7.89387 14.5736 7.68597 15.2388 7.31008 15.81C7.10444 16.1472 6.99708 16.5351 7.00008 16.93C7.00059 17.5231 7.25547 18.0875 7.70008 18.48C8.45348 19.1375 9.57668 19.1375 10.3301 18.48C10.7625 18.0813 11.0059 17.5182 11.0001 16.93C11.014 16.5359 10.9206 16.1453 10.7301 15.8C10.353 15.2331 10.1449 14.5707 10.1301 13.89V13.4C10.1247 13.0164 10.2727 12.6465 10.5412 12.3724C10.8097 12.0983 11.1764 11.9426 11.5601 11.94L15.0001 12.03Z" fill="#F0F0EF"/>
<path id="Path" d="M4 2.36C3.58579 2.36 3.25 2.69579 3.25 3.11V6.58C3.25 6.99421 3.58579 7.33 4 7.33C4.41421 7.33 4.75 6.99421 4.75 6.58V3.11C4.74461 2.69804 4.41196 2.36539 4 2.36V2.36Z" fill="#F0F0EF"/>
<path id="Path_2" d="M7 2.36C6.58804 2.36539 6.25539 2.69804 6.25 3.11V4.86C6.25 5.27421 6.58579 5.61 7 5.61C7.41421 5.61 7.75 5.27421 7.75 4.86V3.11C7.74461 2.69804 7.41196 2.36539 7 2.36V2.36Z" fill="#F0F0EF"/>
</g>
</svg>
