<svg width="45" height="35" viewBox="0 0 45 35" fill="none" xmlns="http://www.w3.org/2000/svg">
<g id="exhibitions 1" clip-path="url(#clip0_394_979)">
<path id="Vector" d="M44.4283 25.0895C44.2235 25.2514 44.0402 25.4781 43.803 25.5753C36.8493 28.5441 29.8847 31.5022 22.931 34.471C22.5644 34.633 22.2302 34.633 21.8637 34.471C14.9099 31.5022 7.94535 28.5441 0.980807 25.5969C0.517223 25.4026 0.344727 25.1111 0.344727 24.6145C0.355508 19.8211 0.355508 15.017 0.344727 10.2237C0.344727 9.71626 0.528004 9.43557 0.991588 9.24125C7.95613 6.2832 14.9099 3.32515 21.8744 0.356302C22.2518 0.194365 22.5752 0.205161 22.9418 0.367098C29.874 3.32515 36.8277 6.2724 43.7707 9.24125C44.0187 9.34921 44.2127 9.57592 44.4391 9.74865C44.4283 14.8551 44.4283 19.9723 44.4283 25.0895ZM42.1212 24.8952C41.9487 24.8196 41.8625 24.7764 41.7654 24.7332C35.4262 22.0343 29.0869 19.3461 22.7585 16.6364C22.4782 16.5176 22.2518 16.55 21.9822 16.658C16.9691 18.7955 11.9451 20.9331 6.92115 23.0707C5.5304 23.6644 4.13965 24.2582 2.69499 24.8628C2.84592 24.9383 2.94295 25.0031 3.05076 25.0463C9.40079 27.7453 15.7508 30.455 22.1116 33.1432C22.2949 33.2187 22.5644 33.1971 22.7477 33.1216C27.8148 30.984 32.8711 28.8248 37.9274 26.6765C39.2858 26.0935 40.655 25.5105 42.1212 24.8952ZM1.64923 23.8804C1.78938 23.8372 1.89719 23.8048 1.99422 23.7616C8.46284 21.0087 14.9422 18.2557 21.4109 15.5136C21.6696 15.4057 21.7451 15.2653 21.7451 14.9954C21.7343 14.2829 21.7343 13.5596 21.7451 12.8363C21.7558 12.3181 21.9822 12.0374 22.3919 12.0374C22.8016 12.0374 23.028 12.3073 23.0388 12.8255C23.0496 13.5164 23.0603 14.2073 23.0388 14.8982C23.028 15.2329 23.125 15.3949 23.4485 15.5352C29.874 18.2557 36.2887 20.9871 42.7142 23.7184C42.8435 23.7724 42.9729 23.8156 43.1454 23.8804C43.1454 23.686 43.1454 23.5457 43.1454 23.4053C43.1454 19.2058 43.1454 15.017 43.1562 10.8174C43.1562 10.4612 43.0484 10.2992 42.7249 10.1589C36.321 7.47074 29.9279 4.75019 23.5347 2.02965C23.3946 1.97567 23.2544 1.92169 23.0496 1.84612C23.0496 2.08363 23.0496 2.25636 23.0496 2.4291C23.0496 4.4695 23.0496 6.50991 23.0496 8.55032C23.0496 9.23045 22.8232 9.56512 22.3811 9.54353C21.9499 9.53274 21.7558 9.21966 21.7558 8.55032C21.7558 6.49911 21.7558 4.43712 21.7558 2.38591C21.7558 2.22398 21.7451 2.06204 21.7343 1.85692C21.5618 1.92169 21.454 1.95408 21.3569 1.99726C14.8883 4.7394 8.44128 7.48153 1.99422 10.2129C1.73548 10.3208 1.63845 10.4504 1.63845 10.7419C1.64923 14.9954 1.64923 19.249 1.64923 23.5025C1.64923 23.6105 1.64923 23.7292 1.64923 23.8804Z" fill="#F0F0EF"/>
<path id="Vector_2" d="M27.5454 23.157C27.5454 23.6752 27.5347 24.1934 27.5454 24.7116C27.5562 25.111 27.3945 25.3809 27.0064 25.5429C25.5941 26.1366 24.1925 26.752 22.7695 27.3242C22.5431 27.4105 22.2196 27.4105 21.9932 27.3242C20.5701 26.752 19.1686 26.1258 17.7563 25.5429C17.3897 25.3917 17.228 25.1326 17.2388 24.744C17.2388 23.686 17.2388 22.6172 17.2388 21.5592C17.2388 21.1706 17.4113 20.9223 17.7778 20.7711C19.1794 20.1881 20.5593 19.5728 21.9717 19.0006C22.2196 18.9034 22.5754 18.9034 22.8234 19.0006C24.2141 19.562 25.5941 20.1773 26.9741 20.7495C27.373 20.9115 27.5454 21.1814 27.5347 21.6132C27.5347 22.1206 27.5454 22.6388 27.5454 23.157ZM25.2275 21.4189C24.6561 21.1706 24.1279 21.0086 23.6643 20.7387C22.8126 20.2421 22.004 20.2097 21.1415 20.7279C20.6779 21.0086 20.1389 21.1706 19.5675 21.4189C20.5162 21.8183 21.3679 22.1962 22.2196 22.5524C22.3166 22.5956 22.4568 22.5956 22.5431 22.5632C23.4163 22.1962 24.2788 21.8183 25.2275 21.4189ZM18.5433 22.3905C18.5433 23.049 18.5325 23.6428 18.5541 24.2258C18.5541 24.3229 18.6188 24.4633 18.6942 24.4957C19.6861 24.9383 20.6887 25.3593 21.756 25.8128C21.756 25.1326 21.7668 24.5173 21.7453 23.9127C21.7453 23.8263 21.6374 23.7184 21.5512 23.6752C20.5701 23.2542 19.5891 22.8439 18.5433 22.3905ZM23.0498 25.8128C24.1063 25.3593 25.0874 24.9599 26.0577 24.5281C26.1439 24.4957 26.2409 24.3661 26.2409 24.2906C26.2517 23.6752 26.2517 23.0706 26.2517 22.3905C25.1952 22.8439 24.1925 23.2649 23.2007 23.6968C23.136 23.7292 23.0605 23.8479 23.0605 23.9235C23.039 24.5389 23.0498 25.1326 23.0498 25.8128Z" fill="#F0F0EF"/>
<path id="Vector_3" d="M24.6236 9.78103C24.6236 8.42076 24.6236 7.0497 24.6236 5.68943C24.6236 4.91213 25.0117 4.66382 25.734 4.96611C28.9252 6.31558 32.1056 7.67585 35.2968 9.02533C35.7172 9.19806 35.8897 9.46796 35.8897 9.91058C35.8789 12.6419 35.8897 15.3625 35.8789 18.0938C35.8789 18.8711 35.4693 19.1194 34.7577 18.8171C31.5665 17.4676 28.3861 16.0966 25.195 14.7579C24.7745 14.5852 24.602 14.3153 24.6128 13.8726C24.6236 12.5124 24.6236 11.1521 24.6236 9.78103ZM34.5529 17.3381C34.5744 17.2193 34.5852 17.1654 34.5852 17.1222C34.5852 14.8982 34.5852 12.6635 34.596 10.4396C34.596 10.1481 34.4343 10.0833 34.2295 9.99695C31.5773 8.87419 28.9252 7.75142 26.2838 6.61786C26.176 6.57468 26.0574 6.54229 25.9173 6.48831C25.9173 8.8418 25.9173 11.1413 25.9281 13.43C25.9281 13.5488 26.0898 13.7215 26.2084 13.7755C26.8552 14.0778 27.5237 14.3477 28.1813 14.6284C30.2836 15.5136 32.3967 16.4097 34.5529 17.3381Z" fill="#F0F0EF"/>
<path id="Vector_4" d="M13.5408 12.5771C13.5408 13.9374 13.53 15.3085 13.5516 16.6687C13.5624 17.133 13.3899 17.4137 12.9478 17.5864C9.92915 18.8063 6.91046 20.0478 3.88099 21.2678C3.15866 21.5592 2.77055 21.2894 2.77055 20.5121C2.77055 17.8131 2.77055 15.1142 2.75977 12.4152C2.75977 11.9726 2.92148 11.7027 3.34194 11.5191C6.38219 10.2452 9.41166 8.94975 12.4411 7.66505C13.1527 7.36276 13.5408 7.62186 13.5408 8.39916C13.5516 9.79182 13.5408 11.1845 13.5408 12.5771ZM12.2471 9.18725C12.1177 9.21964 12.0422 9.23044 11.9668 9.26283C9.42244 10.3424 6.87812 11.4328 4.3338 12.5016C4.06427 12.6095 4.06427 12.7823 4.06427 13.009C4.06427 15.1249 4.06427 17.2301 4.06427 19.3461C4.06427 19.4757 4.07505 19.5944 4.08583 19.7563C4.19364 19.724 4.27989 19.7132 4.35536 19.6808C6.8889 18.6552 9.42244 17.6188 11.956 16.604C12.2147 16.496 12.2471 16.3557 12.2471 16.1182C12.2363 14.067 12.2471 12.005 12.2471 9.95376C12.2471 9.70545 12.2471 9.45715 12.2471 9.18725Z" fill="#F0F0EF"/>
<path id="Vector_5" d="M41.9815 16.6039C41.9815 17.9426 41.9815 19.2705 41.9815 20.6092C41.9815 21.4944 41.6149 21.7319 40.8171 21.3973C39.6097 20.8791 38.4022 20.3609 37.1731 19.8535C36.7419 19.6807 36.5479 19.4108 36.5479 18.9466C36.5586 16.2153 36.5479 13.4947 36.5586 10.7634C36.5586 9.9861 36.9683 9.7378 37.6906 10.0401C38.9197 10.5583 40.1379 11.0981 41.367 11.5947C41.8198 11.7782 41.9923 12.0697 41.9923 12.5447C41.9707 13.905 41.9815 15.2545 41.9815 16.6039ZM37.8524 11.5299C37.8524 13.9158 37.8524 16.2261 37.8631 18.5364C37.8631 18.6227 37.9386 18.7631 38.0249 18.7955C38.8873 19.1733 39.7498 19.5404 40.6339 19.9182C40.6554 19.8427 40.6878 19.7995 40.6878 19.7671C40.6878 17.5 40.6985 15.2329 40.6878 12.9657C40.6878 12.8578 40.5692 12.6958 40.4721 12.6527C39.6204 12.2748 38.7795 11.9186 37.8524 11.5299Z" fill="#F0F0EF"/>
<path id="Vector_6" d="M14.6294 8.96055C14.6294 8.39917 14.6402 7.83779 14.6294 7.27641C14.6186 6.89856 14.7803 6.65025 15.1253 6.50991C16.6562 5.86216 18.1764 5.20361 19.7181 4.56666C20.2787 4.32915 20.7099 4.59905 20.7207 5.21441C20.7423 6.38036 20.7315 7.53551 20.7315 8.70145C20.7315 9.05772 20.559 9.28443 20.2248 9.42477C18.7046 10.0617 17.1953 10.7203 15.6752 11.3572C15.0391 11.6271 14.651 11.3572 14.6402 10.6447C14.6294 10.0833 14.6294 9.52194 14.6294 8.96055ZM15.9231 9.83501C17.0659 9.3492 18.1656 8.88498 19.2437 8.42076C19.3192 8.38838 19.4054 8.28042 19.4162 8.20485C19.427 7.52471 19.427 6.84458 19.427 6.08887C18.2734 6.57468 17.1845 7.0389 16.0956 7.51392C16.0202 7.5463 15.9339 7.68665 15.9339 7.77302C15.9231 8.44236 15.9231 9.1117 15.9231 9.83501Z" fill="#F0F0EF"/>
<path id="Vector_7" d="M14.6294 14.3909C14.6294 13.9482 14.6402 13.5056 14.6294 13.0522C14.6187 12.7067 14.7696 12.4692 15.0822 12.3397C16.6239 11.6811 18.1548 11.0226 19.7073 10.3748C20.2895 10.1373 20.7099 10.4072 20.7207 11.0442C20.7423 11.951 20.7315 12.8471 20.7207 13.7539C20.7207 14.1102 20.5482 14.3369 20.2248 14.4772C18.6939 15.125 17.1738 15.7835 15.6429 16.4205C15.0499 16.6688 14.651 16.3989 14.6402 15.7511C14.6294 15.3085 14.6294 14.8551 14.6294 14.3909ZM19.427 11.9078C18.2519 12.4152 17.163 12.8687 16.0741 13.3437C16.0094 13.3761 15.934 13.484 15.934 13.5704C15.9232 13.9914 15.9232 14.4233 15.9232 14.9199C17.0767 14.4233 18.1872 13.959 19.2761 13.484C19.3408 13.4516 19.4054 13.3329 19.4162 13.2573C19.4378 12.8255 19.427 12.4152 19.427 11.9078Z" fill="#F0F0EF"/>
</g>
<defs>
<clipPath id="clip0_394_979">
<rect width="45" height="35" fill="white"/>
</clipPath>
</defs>
</svg>
