<svg width="159" height="26" viewBox="0 0 159 26" fill="none" xmlns="http://www.w3.org/2000/svg">
<path id="Vector" d="M4.74752 11.8009C4.19105 11.812 3.63815 11.7096 3.12258 11.4999C2.60701 11.2902 2.13959 10.9776 1.74886 10.5813C0.624991 9.45739 0.65523 8.06137 0.65523 6.14626C0.65523 4.23115 0.624991 2.83681 1.74886 1.71126C2.14068 1.31702 2.60852 1.00652 3.124 0.798595C3.63947 0.590672 4.19182 0.48967 4.74752 0.501718C6.82391 0.501718 8.44335 1.68942 8.83813 4.01612H6.63576C6.41737 3.12576 5.85627 2.43867 4.76264 2.43867C4.50302 2.42855 4.24431 2.47499 4.00442 2.57478C3.76453 2.67456 3.5492 2.8253 3.37335 3.01656C2.95168 3.48526 2.82569 4.01611 2.82569 6.15466C2.82569 8.2932 2.95168 8.82573 3.37335 9.29443C3.54948 9.48533 3.76486 9.63583 4.00468 9.73559C4.2445 9.83535 4.50308 9.88199 4.76264 9.87233C5.85627 9.87233 6.41737 9.18524 6.63576 8.29488H8.83813C8.44839 10.6216 6.80879 11.8076 4.74752 11.8076V11.8009ZM15.3814 3.0216C15.8031 3.4903 15.9274 4.00604 15.9274 6.14458C15.9274 8.28312 15.8031 8.79885 15.3814 9.26755C15.2064 9.46136 14.9914 9.6149 14.7512 9.71757C14.5111 9.82023 14.2515 9.8696 13.9905 9.86225C13.7274 9.86943 13.4659 9.82006 13.2236 9.71746C12.9814 9.61486 12.7639 9.46143 12.586 9.26755C12.1644 8.79885 12.0552 8.2848 12.0552 6.14458C12.0552 4.00436 12.1644 3.4903 12.586 3.0216C12.764 2.82794 12.9815 2.67477 13.2238 2.57246C13.4661 2.47014 13.7275 2.42108 13.9905 2.42859C14.2514 2.42092 14.5109 2.46996 14.7511 2.57235C14.9912 2.67473 15.2063 2.82801 15.3814 3.0216ZM16.9891 10.5813C18.113 9.45739 18.0979 8.06137 18.0979 6.14626C18.0979 4.23115 18.113 2.83681 16.9891 1.71126C16.5998 1.31363 16.1324 1.00088 15.6164 0.792718C15.1003 0.584553 14.5467 0.485475 13.9905 0.501718C13.4313 0.486189 12.875 0.586358 12.3564 0.795943C11.8378 1.00553 11.368 1.32001 10.9767 1.71966C9.85281 2.84521 9.88473 4.23954 9.88473 6.15466C9.88473 8.06977 9.85953 9.45906 10.9767 10.5813C11.3679 10.9812 11.8375 11.2958 12.3562 11.5054C12.8749 11.715 13.4313 11.815 13.9905 11.7992C14.5474 11.8151 15.1016 11.715 15.6178 11.5053C16.134 11.2957 16.601 10.981 16.9891 10.5813ZM23.907 11.7051L27.5911 0.587395H25.3283L23.094 7.8329L20.8613 0.587395H18.6136L22.291 11.7068L23.907 11.7051ZM28.4663 11.7051H35.7891V9.77153H30.6368V7.07022H35.0248V5.13327H30.6368V2.52603H35.7891V0.589074H28.4663V11.7068V11.7051ZM44.1904 11.7051H46.1274V0.589074H43.962V7.3978L39.5572 0.589074H37.6169V11.7068H39.7873V4.88296L44.1904 11.7068V11.7051ZM52.669 2.52434H55.5736V0.589074H47.5939V2.52603H50.4985V11.7068H52.669V2.52603V2.52434ZM61.5541 2.52434C62.5066 2.52434 63.1315 3.13248 63.1315 3.99092C63.1315 4.84936 62.5066 5.45917 61.5541 5.45917H59.5096V2.52603L61.5541 2.52434ZM63.234 11.7051H65.7539L63.2811 6.91398C63.8844 6.70526 64.4054 6.30931 64.768 5.78382C65.1306 5.25833 65.3159 4.63077 65.297 3.9926C65.297 2.1346 63.953 0.589074 61.6902 0.589074H57.3375V11.7068H59.5096V7.27349H61.0703L63.2407 11.7068L63.234 11.7051ZM71.7916 7.14581L75.1329 0.594114H72.781L70.7366 5.07111L68.6568 0.589074H66.3049L69.6463 7.14077V11.7068H71.7983V7.14749L71.7916 7.14581ZM6.28969 20.8909C6.30691 20.473 6.1891 20.0607 5.95371 19.715C5.74001 19.412 5.44212 19.1784 5.09695 19.043C5.40497 18.9104 5.66767 18.6909 5.85291 18.4114C6.06739 18.1013 6.17904 17.7317 6.1721 17.3547C6.18653 17.0576 6.13582 16.761 6.02351 16.4856C5.91121 16.2102 5.74002 15.9627 5.52197 15.7605C5.09079 15.3685 4.50561 15.1725 3.76645 15.1725H0.66363V23.137H3.88404C4.60865 23.137 5.19046 22.9416 5.62948 22.5507C6.0685 22.1598 6.28857 21.6066 6.28969 20.8909ZM4.95919 17.4001C4.968 17.5577 4.94081 17.7152 4.87968 17.8607C4.81856 18.0063 4.72511 18.136 4.60641 18.24C4.33706 18.4495 4.00135 18.555 3.66061 18.5374H1.87149V16.2594H3.66061C4.00135 16.2418 4.33706 16.3473 4.60641 16.5567C4.72567 16.6611 4.81946 16.7913 4.88061 16.9375C4.94176 17.0837 4.96864 17.2419 4.95919 17.4001ZM5.08183 20.8288C5.08754 20.991 5.05959 21.1527 4.99974 21.3036C4.93989 21.4546 4.84944 21.5915 4.73408 21.7057C4.60464 21.8233 4.45286 21.9136 4.28778 21.9714C4.12269 22.0291 3.94768 22.053 3.77317 22.0417H1.87149V19.626H3.77317C3.94758 19.6158 4.12229 19.6402 4.28721 19.6979C4.45213 19.7556 4.60401 19.8453 4.73408 19.9619C4.84908 20.0743 4.9394 20.2095 4.99927 20.3587C5.05914 20.508 5.08726 20.6681 5.08183 20.8288ZM12.0283 23.132V17.4689H10.886V20.9262C10.8977 21.0985 10.874 21.2713 10.8162 21.434C10.7584 21.5967 10.6678 21.7458 10.55 21.872C10.323 22.0848 10.021 22.199 9.71001 22.1895C9.55869 22.1952 9.4078 22.17 9.26656 22.1154C9.12531 22.0608 8.99668 21.978 8.88853 21.872C8.77486 21.7437 8.68804 21.5939 8.63322 21.4314C8.5784 21.269 8.55668 21.0972 8.56935 20.9262V17.4689H7.43036V21.0942C7.42455 21.401 7.46823 21.7068 7.55971 21.9997C7.64677 22.2642 7.79866 22.5027 8.00153 22.6935C8.18901 22.8672 8.40906 23.0021 8.64895 23.0903C8.88885 23.1786 9.14385 23.2184 9.39923 23.2076C9.68236 23.2176 9.96428 23.1659 10.2254 23.0559C10.4865 22.9459 10.7205 22.7804 10.9112 22.5709V23.1404L12.0283 23.132ZM14.6792 16.3417V15.1338H13.4714V16.3417H14.6792ZM14.6456 23.132V17.4689H13.505V23.1404L14.6456 23.132ZM18.3415 23.132V22.1727H17.8375C17.7508 22.181 17.6633 22.1703 17.5812 22.1413C17.4991 22.1123 17.4243 22.0657 17.3621 22.0047C17.2567 21.8589 17.2072 21.68 17.2226 21.5007V15.1742H16.082V21.573C16.0656 21.9836 16.2054 22.3852 16.4734 22.6969C16.7338 22.9925 17.1218 23.1387 17.6359 23.1387L18.3415 23.132ZM23.6315 23.132V15.1742H22.4909V18.03C22.3231 17.8076 22.0994 17.6337 21.8424 17.5261C21.5737 17.4268 21.2888 17.3789 21.0025 17.3849C20.7356 17.3824 20.4704 17.428 20.2196 17.5193C19.9982 17.5996 19.7962 17.7255 19.6266 17.8889C19.3655 18.1604 19.1902 18.5028 19.1226 18.8734C19.0314 19.3375 18.9886 19.8098 18.9949 20.2828C18.9888 20.7574 19.0316 21.2314 19.1226 21.6973C19.1895 22.0701 19.3648 22.4148 19.6266 22.6885C19.7974 22.8532 20.0021 22.9788 20.2263 23.0564C20.4787 23.1484 20.7456 23.1939 21.0142 23.1908C21.3015 23.1973 21.5872 23.1458 21.8542 23.0396C22.1132 22.9229 22.3399 22.7447 22.5144 22.5205V23.1236L23.6315 23.132ZM22.4909 20.2912C22.4924 20.5415 22.4795 20.7916 22.4522 21.0405C22.4293 21.2444 22.3725 21.4431 22.2842 21.6284C22.2045 21.7967 22.078 21.9385 21.9197 22.0366C21.7359 22.1396 21.5271 22.1896 21.3166 22.1811C21.104 22.189 20.8932 22.1391 20.7068 22.0366C20.5479 21.9415 20.4209 21.8011 20.3422 21.6335C20.2565 21.4496 20.1998 21.2535 20.1742 21.0522C20.1138 20.5467 20.1138 20.0357 20.1742 19.5302C20.1993 19.3304 20.256 19.1359 20.3422 18.954C20.4221 18.7888 20.5489 18.6509 20.7068 18.5575C20.8927 18.4535 21.1037 18.4029 21.3166 18.4114C21.5274 18.4026 21.7363 18.4533 21.9197 18.5575C22.0774 18.6542 22.2039 18.7941 22.2842 18.9607C22.373 19.1434 22.4299 19.34 22.4522 19.542C22.482 19.7929 22.4971 20.0453 22.4976 20.2979L22.4909 20.2912ZM26.2824 16.3417V15.1338H25.0746V16.3417H26.2824ZM26.2488 23.132V17.4689H25.1082V23.1404L26.2488 23.132ZM32.3235 23.132V19.5151C32.3284 19.2078 32.2847 18.9016 32.1941 18.6079C32.1071 18.3439 31.9551 18.1059 31.7523 17.9158C31.5649 17.7418 31.3449 17.6067 31.105 17.5182C30.8651 17.4297 30.6101 17.3895 30.3546 17.4001C30.0715 17.3917 29.79 17.4444 29.5291 17.5545C29.2682 17.6647 29.0341 17.8297 28.8427 18.0384V17.4689H27.7238V23.1404H28.8645V19.6831C28.8526 19.5108 28.8763 19.3379 28.9341 19.1752C28.9919 19.0125 29.0826 18.8634 29.2005 18.7373C29.4272 18.5239 29.7292 18.4091 30.0404 18.4181C30.1926 18.4114 30.3445 18.4358 30.4869 18.4899C30.6293 18.5439 30.7592 18.6263 30.8686 18.7322C31.0769 18.9405 31.1828 19.2581 31.1828 19.6831V23.1387L32.3235 23.132ZM38.0721 23.0984V17.4689H36.9651V18.0737C36.7911 17.8486 36.5643 17.6697 36.3049 17.5529C36.0423 17.4476 35.7612 17.3962 35.4783 17.4017C34.8949 17.4017 34.4396 17.5658 34.1126 17.894C33.8602 18.1498 33.6854 18.4719 33.6086 18.823C33.4384 19.7323 33.4384 20.6653 33.6086 21.5747C33.6851 21.9259 33.8599 22.2481 34.1126 22.5037C34.2924 22.6749 34.5051 22.8079 34.7379 22.8946C34.9706 22.9812 35.2185 23.0197 35.4666 23.0076C35.7439 23.0134 36.0197 22.9643 36.278 22.8632C36.5329 22.7497 36.757 22.5769 36.9315 22.3592V23.0866C36.9462 23.4586 36.8317 23.8243 36.6073 24.1214C36.39 24.3936 36.054 24.5296 35.5993 24.5296C35.3696 24.5368 35.1409 24.4968 34.9273 24.4121C34.7211 24.3145 34.5322 24.184 34.3679 24.0257L33.6405 24.7531C33.904 25.0042 34.2146 25.2006 34.5544 25.331C34.9083 25.4517 35.2809 25.5086 35.6547 25.499C36.4006 25.499 36.992 25.275 37.4287 24.827C37.6474 24.5983 37.8178 24.3281 37.9301 24.0323C38.0423 23.7365 38.0941 23.4212 38.0822 23.1051L38.0721 23.0984ZM36.9315 20.1904C36.9329 20.4223 36.92 20.654 36.8928 20.8842C36.8694 21.0737 36.8167 21.2585 36.7366 21.4319C36.66 21.5942 36.5373 21.7303 36.3838 21.8233C36.197 21.9194 35.99 21.9695 35.7799 21.9695C35.5698 21.9695 35.3628 21.9194 35.176 21.8233C35.0225 21.7303 34.8998 21.5942 34.8232 21.4319C34.7397 21.2589 34.6831 21.0742 34.6552 20.8842C34.5969 20.4235 34.5969 19.9573 34.6552 19.4966C34.6833 19.3066 34.74 19.122 34.8232 18.9489C34.9003 18.787 35.0229 18.651 35.176 18.5575C35.3628 18.4614 35.5698 18.4113 35.7799 18.4113C35.99 18.4113 36.197 18.4614 36.3838 18.5575C36.5369 18.651 36.6595 18.787 36.7366 18.9489C36.8167 19.1223 36.8694 19.3071 36.8928 19.4966C36.9225 19.7289 36.9376 19.9629 36.9382 20.1971L36.9315 20.1904ZM47.1337 20.8624C47.1337 20.1535 46.9175 19.6086 46.4852 19.2278C46.3089 19.0686 46.1059 18.9418 45.8855 18.8532C45.5987 18.7461 45.3005 18.6728 44.9968 18.6348L44.56 18.5693L44.0913 18.5021C43.7635 18.4677 43.4526 18.3393 43.1959 18.1325C43.0942 18.0392 43.0143 17.9245 42.9621 17.7967C42.9098 17.669 42.8864 17.5312 42.8935 17.3933C42.8883 17.2251 42.9203 17.0579 42.9871 16.9034C43.0538 16.7489 43.1538 16.6111 43.2799 16.4996C43.5794 16.253 43.9611 16.1288 44.3483 16.1519C44.674 16.1473 44.9983 16.1944 45.3092 16.2913C45.5996 16.389 45.8639 16.5516 46.082 16.7667L46.8531 16.0074C46.539 15.704 46.1663 15.468 45.7578 15.3136C45.315 15.1632 44.8495 15.091 44.3819 15.1002C43.5599 15.1002 42.9109 15.3147 42.4349 15.7437C42.1988 15.9565 42.0122 16.2187 41.8886 16.5116C41.7649 16.8045 41.7071 17.121 41.7193 17.4387C41.7193 18.0871 41.913 18.5945 42.3005 18.9607C42.7258 19.3253 43.2544 19.5479 43.8124 19.5974L44.2828 19.6646L44.7532 19.7318C44.9357 19.7508 45.1154 19.7902 45.2891 19.8494C45.4154 19.8973 45.53 19.9718 45.6251 20.0678C45.7341 20.1874 45.8178 20.3279 45.8712 20.4808C45.9245 20.6336 45.9463 20.7957 45.9353 20.9572C45.9243 21.1187 45.8808 21.2763 45.8072 21.4206C45.7337 21.5648 45.6317 21.6926 45.5075 21.7964C45.2197 22.0081 44.8154 22.1139 44.2946 22.1139C43.9109 22.1236 43.5283 22.0667 43.164 21.9459C42.8232 21.8177 42.5143 21.6171 42.2585 21.358L41.4522 22.1526C41.7947 22.5142 42.2161 22.7918 42.6835 22.964C43.1949 23.1348 43.732 23.2161 44.2711 23.2042C45.1211 23.2042 45.811 22.9953 46.3407 22.5776C46.6004 22.377 46.8084 22.1173 46.9475 21.8202C47.0865 21.523 47.1527 21.197 47.1404 20.8691L47.1337 20.8624ZM52.6253 20.2912C52.6338 19.8522 52.5852 19.414 52.4808 18.9876C52.387 18.6404 52.206 18.3229 51.955 18.0653C51.7484 17.8537 51.5009 17.6862 51.2276 17.5731C50.9181 17.4486 50.5868 17.3875 50.2533 17.3933C49.9224 17.3872 49.5938 17.4483 49.2873 17.5731C49.0158 17.6868 48.7701 17.8542 48.5649 18.0653C48.3134 18.3225 48.1323 18.6401 48.0391 18.9876C47.844 19.8457 47.844 20.7367 48.0391 21.5948C48.1233 21.9126 48.2798 22.2066 48.4963 22.454C48.7128 22.7014 48.9835 22.8955 49.2873 23.0211C49.5939 23.1453 49.9225 23.2059 50.2533 23.1991C50.5874 23.2059 50.9192 23.143 51.2276 23.0144C51.4986 22.8999 51.7454 22.7352 51.955 22.5289C52.2046 22.2656 52.3852 21.9447 52.4808 21.5948C52.5869 21.1708 52.6377 20.7349 52.632 20.2979L52.6253 20.2912ZM51.4846 20.2912C51.4895 20.6061 51.463 20.9206 51.4057 21.2303C51.3653 21.4619 51.2565 21.676 51.0932 21.8451C50.9838 21.9558 50.8527 22.0427 50.7082 22.1005C50.5637 22.1583 50.4088 22.1858 50.2533 22.1811C50.0998 22.1849 49.9472 22.157 49.805 22.0992C49.6628 22.0414 49.534 21.9549 49.4267 21.8451C49.2629 21.6762 49.1534 21.462 49.1126 21.2303C49.0096 20.6085 49.0096 19.9739 49.1126 19.3521C49.1542 19.1201 49.2635 18.9056 49.4267 18.7356C49.5352 18.6282 49.6645 18.544 49.8066 18.4883C49.9487 18.4325 50.1007 18.4064 50.2533 18.4114C50.4079 18.4056 50.5622 18.4314 50.7066 18.4871C50.851 18.5428 50.9825 18.6274 51.0932 18.7356C51.256 18.9058 51.3647 19.1203 51.4057 19.3521C51.4657 19.6637 51.4944 19.9806 51.4914 20.2979L51.4846 20.2912ZM57.8163 22.3945L57.0317 21.6452C56.8921 21.8157 56.721 21.9577 56.5278 22.0635C56.3479 22.1465 56.1513 22.1868 55.9532 22.1811C55.7501 22.1892 55.5482 22.1475 55.3649 22.0597C55.1816 21.9718 55.0225 21.8405 54.9016 21.6771C54.7753 21.5139 54.6869 21.3245 54.6429 21.1228C54.5853 20.8466 54.5593 20.5648 54.5656 20.2828C54.5596 20.0047 54.5856 19.7268 54.6429 19.4546C54.6879 19.2553 54.7762 19.0683 54.9016 18.9069C55.0223 18.7434 55.1813 18.6119 55.3647 18.524C55.548 18.4361 55.7501 18.3946 55.9532 18.403C56.1512 18.3981 56.3476 18.4384 56.5278 18.5206C56.7211 18.6271 56.8921 18.7696 57.0317 18.9405L57.8163 18.1795C57.5816 17.9202 57.2956 17.7125 56.9763 17.5697C56.6494 17.4401 56.2998 17.3772 55.9482 17.3849C55.6245 17.3826 55.3029 17.436 54.9974 17.5429C54.6948 17.6496 54.4195 17.8216 54.191 18.0468C53.9371 18.303 53.7442 18.613 53.6265 18.954C53.3509 19.8178 53.3509 20.7461 53.6265 21.6099C53.7434 21.9527 53.9364 22.2646 54.191 22.5221C54.4213 22.745 54.6961 22.9167 54.9974 23.0261C55.3021 23.1372 55.6239 23.1941 55.9482 23.1941C56.3003 23.2019 56.6502 23.1373 56.9763 23.0043C57.296 22.8619 57.5839 22.6568 57.823 22.4012L57.8163 22.3945ZM59.9296 16.3467V15.1389H58.7285V16.3467H59.9296ZM59.896 23.137V17.4689H58.7621V23.1404L59.896 23.137ZM65.7757 20.6322V20.1283C65.7757 19.3085 65.563 18.6482 65.1374 18.1476C64.7118 17.647 64.1227 17.3973 63.3701 17.3984C63.0393 17.3851 62.7099 17.4471 62.4066 17.5798C62.1034 17.7125 61.8343 17.9124 61.6196 18.1644C61.1828 18.6684 60.9645 19.3857 60.9645 20.2962C60.9549 20.752 61.0214 21.2062 61.161 21.6402C61.2688 21.9796 61.4527 22.2898 61.6986 22.5473C61.9223 22.7752 62.1961 22.9478 62.4982 23.0513C62.8267 23.159 63.1706 23.2118 63.5163 23.2076C63.9237 23.2205 64.3293 23.1484 64.7073 22.9959C65.0566 22.83 65.373 22.6023 65.6414 22.3239L64.9139 21.6419C64.7381 21.8272 64.5297 21.9787 64.2991 22.0887C64.0576 22.1863 63.7984 22.2321 63.5381 22.2231C63.3405 22.235 63.1427 22.203 62.9589 22.1295C62.775 22.0561 62.6097 21.9429 62.4747 21.7981C62.2066 21.4721 62.071 21.057 62.095 20.6356L65.7757 20.6322ZM64.6452 19.8376H62.095C62.0983 19.6913 62.1112 19.5454 62.1337 19.4008C62.1559 19.2852 62.1914 19.1724 62.2395 19.0649C62.3285 18.8512 62.481 18.67 62.6763 18.5458C62.8831 18.4133 63.1245 18.3449 63.3701 18.3492C63.6142 18.3444 63.8541 18.4129 64.0589 18.5458C64.2515 18.6713 64.4014 18.8523 64.4889 19.0649C64.5431 19.1769 64.5827 19.2955 64.6065 19.4176C64.6282 19.5573 64.6411 19.6981 64.6452 19.8393V19.8376ZM69.3288 23.1387V22.1727H68.8601C68.4412 22.1727 68.2324 21.9527 68.2335 21.5125V18.4416H69.3288V17.5681H68.2335V15.8461H67.0928V17.5681H66.4427V18.4416H67.0928V21.5612C67.0793 21.9683 67.2176 22.3659 67.4809 22.6767C67.6272 22.8334 67.8064 22.9558 68.0057 23.0351C68.2049 23.1144 68.4193 23.1486 68.6333 23.1353L69.3288 23.1387ZM75.138 17.4689H73.9183L72.5996 21.4621L71.2456 17.4689H70.0377L72.0167 22.8699L71.7042 23.7535C71.653 23.9358 71.5524 24.1003 71.4136 24.2289C71.2566 24.3271 71.0723 24.3724 70.8878 24.3583H70.5971V25.3881H71.0557C71.2756 25.3908 71.4945 25.3585 71.7042 25.2923C71.8984 25.2281 72.0746 25.1187 72.2183 24.9732C72.407 24.7722 72.5487 24.5317 72.6332 24.2693L75.138 17.4689ZM80.8732 23.1404V0.589074H79.7325V23.1387L80.8732 23.1404ZM101.15 19.6848L101.304 13.8638C101.399 10.2822 99.564 8.10337 95.5826 8.10337C93.6255 8.11285 91.7055 8.63905 90.017 9.62874L90.6638 12.5854C91.7222 11.8378 93.3702 11.2146 94.8939 11.2146C96.9098 11.2146 97.7497 12.1486 97.6926 14.0705V14.5072C97.2575 14.4753 96.8526 14.4451 96.4478 14.4451C91.4416 14.4451 88.8613 16.4055 88.8613 19.3639C88.8613 21.9157 90.6336 23.5351 93.397 23.5351C95.3575 23.5351 97.0358 22.5389 97.906 21.0757C98.1563 22.7557 99.3372 23.5049 100.705 23.5049C101.444 23.489 102.173 23.3304 102.852 23.0379L103.131 20.6709C102.77 20.7976 102.393 20.8712 102.012 20.8893C101.367 20.8977 101.118 20.555 101.15 19.6831V19.6848ZM97.5733 17.8788C97.4792 19.7469 96.2294 20.9917 94.5259 20.9917C93.0325 20.9917 92.379 20.1518 92.379 18.9993C92.379 17.5681 93.4676 16.4156 96.4847 16.4156C96.8896 16.4156 97.2625 16.4475 97.6355 16.4778L97.5733 17.8788ZM108.358 11.4347L108.078 8.32176C106.858 8.55896 105.623 8.71498 104.382 8.78878C104.585 10.3054 104.679 11.8348 104.663 13.3649V17.8486C104.663 19.6545 104.631 21.8015 104.476 23.1404H108.518C108.426 22.3306 108.394 21.0237 108.394 19.9334V15.0129C108.394 12.6156 110.944 11.6816 113.151 12.0243L113.526 8.10169C111.063 8.38224 109.447 9.40531 108.358 11.433V11.4347ZM127.521 15.3254C127.521 11.3406 125.623 8.10169 121.208 8.10169C116.637 8.10169 113.62 11.6194 113.62 16.2275C113.62 20.2442 116.046 23.6998 121.084 23.6998C123.268 23.6998 125.096 23.0463 126.774 21.956L126.868 18.7188C125.437 19.7771 123.758 20.6793 121.492 20.6793C118.881 20.6793 117.482 19.3353 117.264 16.7264L125.846 16.4761L127.521 15.3254ZM117.321 14.5156C117.632 12.4611 118.969 10.9357 121.052 10.9357C122.98 10.9357 123.883 12.1117 124.131 14.2956L117.321 14.5156ZM142.708 13.3397C142.708 10.0706 141.246 8.10841 138.172 8.10841C136.306 8.10841 134.16 9.28435 132.947 11.3154L132.729 8.35703C131.797 8.45111 130.149 8.63758 129.06 8.63758C129.184 9.98152 129.247 12.031 129.247 13.8453V17.862C129.247 19.668 129.184 21.8149 129.06 23.1538H133.099C133.006 22.3441 132.974 21.0371 132.974 19.9468V14.734C132.974 13.0205 134.841 11.1843 136.737 11.1843C138.448 11.1843 138.977 12.4292 138.977 14.2351V17.8469C138.977 19.6528 138.915 21.7998 138.758 23.1387H142.832C142.77 22.329 142.708 21.022 142.708 19.9317V13.3397ZM157.249 20.8993C156.596 20.8993 156.347 20.5634 156.377 19.6848L156.534 13.8638C156.626 10.2822 154.791 8.10337 150.812 8.10337C148.854 8.11287 146.934 8.63906 145.244 9.62874L145.898 12.5871C147.148 11.7307 148.619 11.254 150.133 11.2146C152.149 11.2146 152.989 12.1486 152.932 14.0705V14.5072C152.495 14.4753 152.092 14.4451 151.687 14.4451C146.681 14.4451 144.099 16.4055 144.099 19.3639C144.099 21.9157 145.871 23.5351 148.635 23.5351C150.593 23.5351 152.273 22.5389 153.143 21.0757C153.392 22.7557 154.575 23.5049 155.942 23.5049C156.681 23.4892 157.409 23.3306 158.087 23.0379L158.365 20.6793C158.005 20.8054 157.63 20.879 157.249 20.8977V20.8993ZM152.802 17.8755C152.708 19.7436 151.459 20.9884 149.753 20.9884C148.262 20.9884 147.608 20.1484 147.608 18.996C147.608 17.5647 148.697 16.4123 151.714 16.4123C152.117 16.4123 152.49 16.4442 152.865 16.4744L152.802 17.8755Z" fill="#F0F0EF"/>
</svg>
