<svg width="128" height="28" viewBox="0 0 128 28" fill="none" xmlns="http://www.w3.org/2000/svg">
<g id="3-seatlab.3b2ec0e5" clip-path="url(#clip0_394_171)">
<g id="Icon">
<path id="Vector" d="M0.691101 7.33473C0.735734 7.18595 0.795246 7.02229 0.839879 6.87351C1.01841 6.30816 1.34572 5.86182 1.86645 5.56427C4.72298 3.88308 7.56464 2.20189 10.3765 0.490942C11.3436 -0.104169 12.995 0.550453 13.3967 1.51751C13.4711 1.68117 13.486 1.8597 13.486 2.03823C13.5009 3.4665 13.486 4.87989 13.5009 6.30816C13.5009 7.26034 13.1289 7.97447 12.2958 8.49519C9.70704 10.102 7.11831 11.7386 4.52957 13.3751C4.27665 13.5388 4.00885 13.6727 3.74105 13.8214C3.56251 13.8214 3.38398 13.8214 3.20545 13.8214C2.65497 13.5834 2.38717 13.1371 2.20864 12.5717C1.73255 11.0839 1.19695 9.59615 0.691101 8.10837C0.691101 7.85545 0.691101 7.60253 0.691101 7.33473ZM3.48813 12.5866C3.59227 12.542 3.62203 12.5271 3.66666 12.5122C6.37442 10.8013 9.08218 9.10518 11.7899 7.39424C12.1768 7.15619 12.3255 6.814 12.3255 6.36767C12.3255 4.96916 12.3255 3.57064 12.3107 2.17213C12.3107 2.05311 12.2809 1.91921 12.2065 1.82994C11.8643 1.42824 11.3138 1.33898 10.8675 1.60678C8.14488 3.22846 5.42224 4.85013 2.68473 6.47181C1.94084 6.91815 1.7623 7.43887 2.0301 8.27203C2.34254 9.17957 2.64009 10.102 2.95253 11.0095C3.13106 11.5303 3.30959 12.051 3.48813 12.5866Z" fill="#F0F0EF"/>
<path id="Vector_2" d="M27.6943 20.9181C27.6645 20.9925 27.6348 21.0818 27.605 21.1562C27.4265 21.8257 27.0992 22.3464 26.4743 22.7184C23.6475 24.3847 20.8059 26.0659 17.994 27.7768C17.0121 28.3719 15.3457 27.7173 14.944 26.7354C14.8845 26.5866 14.8696 26.408 14.8696 26.2593C14.8548 24.8161 14.8548 23.3581 14.8696 21.915C14.8696 21.0074 15.2416 20.323 16.0301 19.8321C18.7081 18.1658 21.3564 16.4697 24.0344 14.8034C24.2427 14.6695 24.4807 14.5802 24.7039 14.4612C24.8378 14.4612 24.9568 14.4612 25.0907 14.4612C25.656 14.6546 25.9536 15.0712 26.1321 15.6216C26.638 17.1689 27.1736 18.7162 27.6943 20.2635C27.6943 20.4569 27.6943 20.695 27.6943 20.9181ZM24.8973 15.6663C24.7783 15.7258 24.7187 15.7555 24.6592 15.7853C21.9664 17.4814 19.2735 19.1774 16.5806 20.8735C16.2235 21.0967 16.0748 21.424 16.0748 21.8406C16.0748 23.254 16.0748 24.6673 16.0896 26.0659C16.0896 26.2295 16.2086 26.4378 16.3277 26.5271C16.7294 26.8246 17.1311 26.8841 17.622 26.5866C20.3149 24.95 23.0227 23.3581 25.7304 21.7513C26.4148 21.3347 26.6231 20.7842 26.3702 20.0106C26.0577 19.0882 25.7453 18.1658 25.4329 17.2285C25.2692 16.7375 25.0907 16.2168 24.8973 15.6663Z" fill="#F0F0EF"/>
<path id="Vector_3" fill-rule="evenodd" clip-rule="evenodd" d="M3.26497 7.97449L12.0875 13.3603C13.2033 14.0298 13.6645 15.1456 13.5902 16.8268L13.5604 20.1296C13.3224 21.6174 11.4329 22.3911 10.4658 21.796L2.20864 16.7821C1.15232 16.187 0.54233 15.6961 0.482819 13.6578L0.54233 8.91179C0.54233 7.3645 0.631597 6.84378 0.899397 6.38257C1.24159 5.81721 2.83351 4.93942 2.96741 4.86503C3.29472 4.6865 2.47644 5.50478 2.56571 6.38257C2.66985 7.18597 2.59546 7.21572 3.26497 7.97449Z" fill="#F0F0EF"/>
<path id="Vector_4" fill-rule="evenodd" clip-rule="evenodd" d="M25.1204 20.2933L16.2979 14.8927C15.1821 14.2232 14.7209 13.1074 14.7952 11.4262L14.825 8.1233C15.063 6.63552 16.9525 5.86187 17.9196 6.45699L26.1768 11.4708C27.2331 12.0659 27.8431 12.5569 27.9026 14.5951L27.8431 19.3412C27.8431 20.8884 27.7538 21.4092 27.486 21.8704C27.1438 22.4357 25.5519 23.3135 25.418 23.3879C25.0907 23.5664 25.909 22.7482 25.8197 21.8704C25.7155 21.0819 25.7899 21.0521 25.1204 20.2933Z" fill="#F0F0EF"/>
</g>
<g id="Wording">
<path id="Vector_5" d="M33.4074 18.9543L35.1183 17.0797C36.3829 18.4038 37.6922 19.0584 39.0461 19.0584C39.7156 19.0584 40.2512 18.9245 40.6677 18.6567C41.0843 18.3889 41.2926 18.0021 41.2926 17.5111C41.2926 17.1392 41.1438 16.8268 40.8612 16.5887C40.5785 16.3507 40.0578 16.0829 39.3287 15.7853L37.9153 15.1902C36.6507 14.6695 35.7283 14.0892 35.1481 13.4793C34.5678 12.8544 34.2852 12.0807 34.2852 11.1434C34.2852 9.90858 34.7464 8.92665 35.6688 8.19764C36.5912 7.46862 37.7666 7.09668 39.1948 7.09668C41.2033 7.09668 42.8101 7.82569 44.0152 9.26884L42.4084 11.1137C41.5158 10.1615 40.4297 9.68541 39.1502 9.68541C39.1353 9.68541 39.1353 9.68541 39.1205 9.68541C37.8558 9.68541 37.231 10.1317 37.231 11.0244C37.231 11.3666 37.3649 11.6493 37.6327 11.8873C37.9005 12.1254 38.3766 12.3783 39.0758 12.661L40.4148 13.1966C41.7538 13.7619 42.7209 14.357 43.3309 14.9968C43.926 15.6365 44.2384 16.4399 44.2384 17.3921C44.2384 18.7311 43.7474 19.7874 42.7506 20.5462C41.7687 21.2901 40.5338 21.662 39.0609 21.662C36.6656 21.6472 34.791 20.7545 33.4074 18.9543Z" fill="#F0F0EF"/>
<path id="Vector_6" d="M46.7825 14.3719C46.7825 14.3273 46.7825 14.2678 46.7825 14.2231C46.7825 12.2741 47.4818 10.6078 48.8803 9.19443C50.2788 7.78104 51.9302 7.08179 53.8346 7.08179C53.8792 7.08179 53.9387 7.08179 53.9834 7.08179C55.8282 7.08179 57.3606 7.69178 58.5955 8.91176C59.8303 10.1317 60.4403 11.6493 60.4403 13.4792C60.4403 14.0297 60.3659 14.6546 60.2171 15.3538H49.8027C49.9812 16.4845 50.4871 17.3921 51.3202 18.0318C52.1534 18.6865 53.1651 19.0138 54.3553 19.0138C55.8282 19.0138 57.1821 18.4633 58.4169 17.3623L59.8452 19.4155C58.2682 20.9181 56.4233 21.662 54.2809 21.662C52.1683 21.662 50.3829 20.9628 48.9398 19.5643C47.4966 18.1657 46.7825 16.425 46.7825 14.3719ZM49.8473 13.018H57.435C57.4201 11.9766 57.0631 11.1434 56.3936 10.5334C55.7092 9.92345 54.876 9.61101 53.8643 9.61101C52.8824 9.61101 52.0344 9.92345 51.3053 10.5334C50.5466 11.1434 50.0705 11.9617 49.8473 13.018Z" fill="#F0F0EF"/>
<path id="Vector_7" d="M64.13 20.5314C63.2374 19.7875 62.8059 18.8056 62.8059 17.6005C62.8059 16.3954 63.2671 15.4432 64.2044 14.7142C65.1268 14.0001 66.3766 13.6281 67.9536 13.6281H71.8814V12.7057C71.8814 11.7386 71.6284 10.9947 71.1077 10.4889C70.587 9.98305 69.858 9.71525 68.8909 9.71525C67.4627 9.71525 66.1832 10.4145 65.0376 11.7981L63.3266 10.0277C64.6805 8.04894 66.6444 7.05212 69.1885 7.05212C70.9292 7.05212 72.3128 7.55797 73.3543 8.58454C74.3808 9.6111 74.9016 11.0394 74.9016 12.8842V21.3199H72.1343V19.728C71.0928 20.9926 69.6051 21.6324 67.6709 21.6324C66.1832 21.6472 65.0078 21.2753 64.13 20.5314ZM65.8112 17.4963C65.8112 18.0617 66.0344 18.508 66.4807 18.8353C66.9271 19.1626 67.5222 19.3263 68.2661 19.3263C69.2926 19.3263 70.1555 19.0139 70.8399 18.389C71.5243 17.7641 71.8814 16.9905 71.8814 16.0532V15.8003H68.2958C66.6295 15.8003 65.8112 16.3656 65.8112 17.4963Z" fill="#F0F0EF"/>
<path id="Vector_8" d="M77.4456 9.96815V7.37942H79.7219V3.71948H82.7273V7.37942H86.8782V9.96815H82.7273V16.5293C82.7273 17.3922 82.9504 18.017 83.3968 18.389C83.8431 18.7609 84.5424 18.9395 85.4945 18.9395C85.8219 18.9395 86.4318 18.8948 87.3394 18.8056V21.3348C86.3574 21.5431 85.5243 21.6472 84.8548 21.6472C83.2331 21.6472 81.9685 21.2306 81.0609 20.4124C80.1683 19.5941 79.7219 18.3741 79.7219 16.7673V9.96815H77.4456Z" fill="#F0F0EF"/>
<path id="Vector_9" d="M90.3447 21.3348V0.0297852H93.35V21.3348H90.3447Z" fill="#F0F0EF"/>
<path id="Vector_10" d="M97.9472 20.5314C97.0546 19.7875 96.6231 18.8056 96.6231 17.6005C96.6231 16.3954 97.0843 15.4432 98.0216 14.7142C98.944 14.0001 100.194 13.6281 101.771 13.6281H105.699V12.7057C105.699 11.7386 105.446 10.9947 104.925 10.4889C104.404 9.98305 103.675 9.71525 102.708 9.71525C101.28 9.71525 100 10.4145 98.8548 11.7981L97.1438 10.0277C98.4977 8.04894 100.462 7.05212 103.006 7.05212C104.746 7.05212 106.13 7.55797 107.171 8.58454C108.198 9.6111 108.719 11.0394 108.719 12.8842V21.3199H105.951V19.728C104.91 20.9926 103.422 21.6324 101.488 21.6324C100 21.6472 98.825 21.2753 97.9472 20.5314ZM99.6284 17.4963C99.6284 18.0617 99.8516 18.508 100.298 18.8353C100.744 19.1626 101.339 19.3263 102.083 19.3263C103.11 19.3263 103.973 19.0139 104.657 18.389C105.341 17.7641 105.699 16.9905 105.699 16.0532V15.8003H102.098C100.447 15.8003 99.6284 16.3656 99.6284 17.4963Z" fill="#F0F0EF"/>
<path id="Vector_11" d="M112.855 21.3348V0H115.86V9.06057C116.961 7.73645 118.508 7.06695 120.517 7.06695C122.496 7.06695 124.132 7.76621 125.427 9.14984C126.721 10.5484 127.376 12.2742 127.376 14.3571C127.376 16.4251 126.721 18.1509 125.427 19.5494C124.132 20.9479 122.496 21.6472 120.547 21.6472C118.36 21.6472 116.723 20.9033 115.637 19.4155V21.3199H112.855V21.3348ZM115.83 14.3719C115.83 15.83 116.232 16.9458 117.05 17.7492C117.869 18.5526 118.851 18.9543 120.026 18.9543C121.231 18.9543 122.243 18.5228 123.061 17.6599C123.879 16.797 124.281 15.6961 124.281 14.3571C124.281 13.0181 123.879 11.932 123.061 11.0691C122.243 10.2062 121.231 9.78959 120.026 9.78959C118.851 9.78959 117.854 10.1913 117.05 10.9947C116.247 11.7832 115.83 12.9139 115.83 14.3719Z" fill="#F0F0EF"/>
</g>
</g>
<defs>
<clipPath id="clip0_394_171">
<rect width="126.893" height="28" fill="white" transform="translate(0.482819)"/>
</clipPath>
</defs>
</svg>
