<svg width="91" height="60" viewBox="0 0 91 60" fill="none" xmlns="http://www.w3.org/2000/svg">
<g id="19-nike.bd3e5539">
<path id="Vector" d="M31.1517 31.0232L37.9155 12.7954H33.4445L30.3492 20.7056L31.0371 12.7954H26.3368L19.573 31.0232H23.9294L27.254 22.1959L26.6808 30.794L31.1517 31.0232ZM36.4252 31.0232L43.189 12.7954H38.9473L32.0689 31.0232H36.4252ZM48.6917 29.8768L48.4624 20.7056L54.8823 13.254L48.6917 29.8768ZM79.8739 23.457L58.0922 29.0743L58.6654 27.3547H54.0798L55.5701 22.9984H59.4679L60.6143 19.6738L56.7165 19.9031L58.0922 16.2346H61.8754L63.1364 12.9101H50.8699L46.3989 18.1835L48.5771 12.7954H44.2207L37.457 31.0232H41.9279L44.7939 23.2277V31.0232H50.526L30.0053 36.4113C27.8653 37.0227 25.9546 37.2903 24.2733 37.2138C22.5919 37.1374 21.2927 36.6788 20.3755 35.8381C18.312 34.3096 17.5859 31.9785 18.1974 28.8451C18.5795 26.7815 19.4201 24.7945 20.7195 22.8838C17.6623 26.0937 15.4077 28.8069 13.9557 31.0232C12.3507 33.3925 11.3189 35.7235 10.8604 38.0163C10.4018 40.3091 10.6693 42.1815 11.6629 43.6337C14.3378 48.0665 20.1844 48.3721 29.2028 44.5508L79.8739 23.457Z" fill="#F0F0EF"/>
</g>
</svg>
